<svg xmlns="http://www.w3.org/2000/svg" version="1.1" xmlns:xlink="http://www.w3.org/1999/xlink" xmlns:svgjs="http://svgjs.com/svgjs" width="1440" height="2000" preserveAspectRatio="none" viewBox="0 0 1440 2000"><g mask="url(&quot;#SvgjsMask1019&quot;)" fill="none"><rect width="1440" height="2000" x="0" y="0" fill="rgba(225, 225, 225, 1)"></rect><path d="M143.41 1851.55L261.33 1851.55L261.33 1893.56L143.41 1893.56z" stroke="rgba(208, 169, 169, 1)"></path><path d="M228.79 1554.72a55.64 55.64 0 1 0 39.22 104.14z" stroke="rgba(137, 187, 203, 1)"></path><path d="M600.65 1729.48L657.5 1729.48L657.5 1867.02L600.65 1867.02z" fill="rgba(208, 169, 169, 1)"></path><path d="M1039.86 634.71a133.85 133.85 0 1 0 263.18-49.02z" fill="rgba(137, 187, 203, 1)"></path><path d="M634.06 621.82L700.29 621.82L700.29 643.86L634.06 643.86z" fill="rgba(208, 169, 169, 1)"></path><path d="M171.15 349.71a99.21 99.21 0 1 0-189.86-57.66z" stroke="rgba(137, 187, 203, 1)"></path><path d="M1300.51 1084.82L1432.3 1084.82L1432.3 1216.61L1300.51 1216.61z" fill="rgba(208, 169, 169, 1)"></path><path d="M299.11 775.23a70.03 70.03 0 1 0 26.29 137.58z" fill="rgba(210, 200, 137, 1)"></path><path d="M678.61 98.9L756.68 98.9L756.68 117.19L678.61 117.19z" stroke="rgba(208, 169, 169, 1)"></path><path d="M60.98 259.22 a103.72 103.72 0 1 0 207.44 0 a103.72 103.72 0 1 0 -207.44 0z" fill="rgba(210, 200, 137, 1)"></path><path d="M647.94 1290.27 a133.65 133.65 0 1 0 267.3 0 a133.65 133.65 0 1 0 -267.3 0z" stroke="rgba(208, 169, 169, 1)"></path><path d="M838.98 1511.04L919.17 1511.04L919.17 1591.23L838.98 1591.23z" fill="rgba(210, 200, 137, 1)"></path><path d="M927.74 621.21L1008.58 621.21L1008.58 702.05L927.74 702.05z" fill="rgba(210, 200, 137, 1)"></path><path d="M854.2 825.36 a76.46 76.46 0 1 0 152.92 0 a76.46 76.46 0 1 0 -152.92 0z" fill="rgba(210, 200, 137, 1)"></path><path d="M1250.65 589.5 a64.76 64.76 0 1 0 129.52 0 a64.76 64.76 0 1 0 -129.52 0z" fill="rgba(210, 200, 137, 1)"></path><path d="M1001.52 1384.26a127.3 127.3 0 1 0 67.21-245.57z" fill="rgba(137, 187, 203, 1)"></path><path d="M856.21 402.19L905.95 402.19L905.95 451.93L856.21 451.93z" stroke="rgba(137, 187, 203, 1)"></path><path d="M6.73 823.06L141.94 823.06L141.94 965.23L6.73 965.23z" stroke="rgba(137, 187, 203, 1)"></path></g><defs><mask id="SvgjsMask1019"><rect width="1440" height="2000" fill="#ffffff"></rect></mask></defs></svg>