<svg xmlns="http://www.w3.org/2000/svg" version="1.1" xmlns:xlink="http://www.w3.org/1999/xlink" xmlns:svgjs="http://svgjs.com/svgjs" width="1920" height="1080" preserveAspectRatio="none" viewBox="0 0 1920 1080"><g mask="url(&quot;#SvgjsMask1659&quot;)" fill="none"><rect width="1920" height="1080" x="0" y="0" fill="#0e2a47"></rect><use xlink:href="#SvgjsG1666" transform="translate(0, 0)" fill="#0f457b"></use><use xlink:href="#SvgjsG1666" transform="translate(0, 868)" fill="#0f457b"></use><use xlink:href="#SvgjsG1666" transform="translate(868, 0)" fill="#0f457b"></use><use xlink:href="#SvgjsG1666" transform="translate(868, 868)" fill="#0f457b"></use><use xlink:href="#SvgjsG1666" transform="translate(1736, 0)" fill="#0f457b"></use><use xlink:href="#SvgjsG1666" transform="translate(1736, 868)" fill="#0f457b"></use></g><defs><mask id="SvgjsMask1659"><rect width="1920" height="1080" fill="#ffffff"></rect></mask><g id="SvgjsG1662"><path d="M6.02 8.14L13.92 7.03l0.3 2.19-7.9 1.11z"></path><path d="M11.58 1.25l2.03 1.53-4.83 6.41L6.75 7.67z"></path><path d="M6.33 10.34L5.21 2.44l2.19-0.31L8.52 10.03zM-0.61 8.12l10.97 8.27-1.36 1.81L-1.97 9.93z"></path><path d="M1.51 4.54l1.81 1.36-3.85 5.12-1.81-1.37z m9.8 7.38l1.81 1.37-3.86 5.11-1.81-1.37z"></path></g><g id="SvgjsG1663"><path d="M2.6 7.65C4.59 5.01 12.66 1.95 12.66 1.95s-0.72 8.6-2.71 11.24c-1.35 1.79-4.07 2.9-6.55 1.04-2.47-1.86-2.16-4.79-0.8-6.58z" fill-rule="evenodd"></path></g><g id="SvgjsG1661"><path d="M3.27 13.81C-0.13 11.24-0.81 6.4 1.75 3 4.31-0.4 9.16-1.08 12.55 1.48S16.64 8.89 14.08 12.29c-2.56 3.4-7.41 4.08-10.81 1.52z m1.15-1.53c2.56 1.93 6.21 1.42 8.13-1.14 1.93-2.55 1.41-6.21-1.14-8.14-2.56-1.93-6.21-1.41-8.13 1.15-1.93 2.56-1.42 6.21 1.14 8.13z"></path><path d="M7.33 8.48a0.57 0.57 0 0 1-0.42-0.37 0.58 0.58 0 0 1 0.04-0.47L9.64 4.05a0.58 0.58 0 0 1 0.92 0.7l-2.09 2.78 3.22 0.67a0.58 0.58 0 0 1 0.45 0.69c-0.07 0.32-0.37 0.52-0.68 0.45l-4.13-0.86z"></path></g><g id="SvgjsG1665"><path d="M11.04 10.59a46.75 46.75 0 0 1-0.17-0.64c-0.05-0.18-0.09-0.36-0.14-0.54-0.29-1.08-0.64-2.13-1.41-2.82A2.81 2.81 0 0 0 9.13 6.43c-0.07-0.05-0.14-0.09-0.22-0.14-0.87-0.54-1.98-0.6-3.1-0.58l0.03 0.12c0.04 0.13 0.07 0.26 0.1 0.39C7.05 6.21 8.08 6.27 8.82 6.84c0.74 0.56 1.09 1.52 1.38 2.58a35.1 35.1 0 0 1 0.17 0.66c0.05 0.18 0.09 0.35 0.14 0.53C10.83 11.78 11.21 12.93 12.11 13.6c0.35 0.26 0.74 0.43 1.17 0.54l0.34-0.44c-0.45-0.09-0.85-0.24-1.2-0.5-0.75-0.56-1.09-1.53-1.38-2.61z"></path><path d="M11.16 9.75c0.01 0.04 0.02 0.07 0.03 0.11 0.03 0.14 0.07 0.27 0.1 0.4 0.4-0.01 0.79 0 1.16 0.04l-0.82 1.09c0.07 0.19 0.14 0.38 0.23 0.55L13.03 10.38c0.34 0.07 0.66 0.18 0.93 0.35l-1.52 2.03c0.06 0.05 0.11 0.11 0.18 0.16 0.07 0.05 0.15 0.1 0.23 0.15L14.37 11.04c0.25 0.23 0.45 0.52 0.62 0.84L15.32 11.43C15.1 11.06 14.83 10.73 14.49 10.47c-0.9-0.68-2.11-0.74-3.33-0.72z m-6.44-3.5c-0.01-0.04-0.02-0.08-0.03-0.13-0.03-0.13-0.07-0.25-0.1-0.38-1.11 0.01-2.13-0.05-2.88-0.61C1.37 4.87 1.12 4.52 0.92 4.11l-0.34 0.44C0.79 4.94 1.06 5.27 1.4 5.53c0.9 0.68 2.1 0.74 3.32 0.72z"></path><path d="M1.72 4.69c0.06 0.06 0.12 0.12 0.19 0.16 0.07 0.05 0.14 0.1 0.22 0.14L3.66 2.96c0.24 0.23 0.44 0.5 0.6 0.81-0.01 0.01-0.02 0.01-0.03 0.03l-1.15 1.52a5.82 5.82 0 0 0 0.59 0.06L4.49 4.3c0.21 0.53 0.36 1.13 0.52 1.74C5.36 7.39 5.72 8.79 6.75 9.57c0.9 0.68 2.1 0.74 3.32 0.71l-0.04-0.13c-0.03-0.13-0.07-0.25-0.1-0.37-0.4 0-0.78 0-1.14-0.04L9.6 8.66A5.82 5.82 0 0 0 9.38 8.11l-1.14 1.52c-0.01 0.01-0.01 0.02-0.01 0.02-0.34-0.07-0.66-0.18-0.95-0.35L8.81 7.28a1.97 1.97 0 0 0-0.2-0.18c-0.07-0.05-0.13-0.09-0.21-0.13l-1.53 2.03c-0.24-0.23-0.44-0.5-0.6-0.81 0.01-0.01 0.02-0.02 0.03-0.03L7.44 6.64a5.63 5.63 0 0 0-0.59-0.07l-0.82 1.1c-0.21-0.53-0.37-1.14-0.52-1.76C5.16 4.57 4.8 3.17 3.77 2.39c-0.35-0.26-0.73-0.43-1.15-0.55l-0.33 0.44c0.35 0.08 0.67 0.2 0.96 0.37L1.72 4.69z"></path></g><g id="SvgjsG1664"><path d="M3.24 5.21L1.24 3.7 2.04 2.64l2 1.51-0.8 1.06zM6.59 2.65L6.24 0.17l1.31-0.18 0.35 2.48-1.31 0.18z m-4.1 5.45l0.18 1.3-2.48 0.35-0.18-1.31 2.48-0.34z m9.34-4.09l-1.07-0.8L12.28 1.2l1.06 0.8-1.51 2.01z m-7.66 7.94l1.06 0.8-1.51 2.01-1.06-0.8 1.51-2.01zM13.53 7.88l-0.2-1.32 2.5-0.34 0.18 1.31-2.48 0.35z m-4.09 5.42l0.34 2.51-1.31 0.18-0.35-2.48 1.32-0.21z m5.36-1.05l-0.8 1.07-2.01-1.52L12.79 10.74l2 1.51z"></path><path d="M4.58 5.4a4.18 4.18 0 1 0 6.68 5.04 4.18 4.18 0 1 0-6.68-5.04"></path></g><g id="SvgjsG1660"><path d="M12.92 13.5c0.24 0.18 0.6 0.15 0.8-0.06 0 0 0.29-0.29 0.59-0.69s0.5-0.75 0.49-0.75c0.14-0.26 0.07-0.61-0.16-0.79l-1.22-0.92c-0.24-0.18-0.37-0.51-0.29-0.74s0.43-0.89 0.72-0.93l1.51-0.21c0.29-0.04 0.52-0.32 0.51-0.61l-0.25-1.77c-0.07-0.29-0.36-0.49-0.66-0.45l-1.51 0.21c-0.29 0.04-0.62-0.1-0.73-0.32s-0.32-0.94-0.14-1.17L13.5 3.09c0.18-0.24 0.15-0.6-0.06-0.81 0 0-0.29-0.29-0.69-0.59s-0.75-0.5-0.75-0.49c-0.26-0.14-0.61-0.07-0.79 0.16l-0.92 1.22c-0.18 0.24-0.51 0.37-0.74 0.29s-0.89-0.43-0.93-0.72l-0.21-1.51C8.37 0.35 8.09 0.12 7.8 0.13l-1.77 0.25c-0.29 0.07-0.49 0.36-0.45 0.66l0.21 1.51c0.04 0.29-0.1 0.62-0.32 0.73s-0.94 0.32-1.17 0.14L3.08 2.5c-0.24-0.18-0.6-0.15-0.8 0.06 0 0-0.29 0.29-0.59 0.69s-0.5 0.75-0.49 0.75c-0.14 0.26-0.07 0.61 0.16 0.79l1.22 0.92c0.24 0.18 0.37 0.51 0.29 0.74-0.08 0.23-0.43 0.89-0.72 0.93l-1.51 0.21C0.35 7.63 0.12 7.91 0.14 8.2l0.24 1.78c0.07 0.29 0.36 0.49 0.66 0.44l1.51-0.21c0.29-0.04 0.62 0.1 0.73 0.32s0.32 0.94 0.14 1.17l-0.91 1.22c-0.18 0.24-0.15 0.6 0.05 0.8 0 0 0.29 0.29 0.69 0.59s0.75 0.5 0.75 0.5c0.26 0.14 0.61 0.07 0.79-0.17l0.92-1.22c0.18-0.24 0.51-0.37 0.74-0.29 0.23 0.08 0.89 0.43 0.93 0.72l0.21 1.51c0.04 0.29 0.32 0.52 0.61 0.51l1.78-0.25c0.29-0.07 0.49-0.36 0.44-0.66l-0.21-1.5c-0.04-0.29 0.1-0.62 0.32-0.73 0.21-0.11 0.94-0.32 1.17-0.15l1.22 0.92zM6.26 10.31c-1.28-0.96-1.53-2.77-0.57-4.05 0.96-1.27 2.77-1.53 4.05-0.57S11.27 8.47 10.31 9.74 7.53 11.27 6.26 10.31z"></path></g><g id="SvgjsG1666"><use xlink:href="#SvgjsG1660" transform="translate(0, 0) scale(2.8)" fill="#0f457b"></use><use xlink:href="#SvgjsG1661" transform="translate(0, 86.8) scale(2.8)" fill="#0f457b"></use><use xlink:href="#SvgjsG1662" transform="translate(0, 173.6) scale(2.8)" fill="#0f457b"></use><use xlink:href="#SvgjsG1662" transform="translate(0, 260.4) scale(2.8)" fill="#0f457b"></use><use xlink:href="#SvgjsG1663" transform="translate(0, 347.2) scale(2.8)" fill="#0f457b"></use><use xlink:href="#SvgjsG1660" transform="translate(0, 434) scale(2.8)" fill="#0f457b"></use><use xlink:href="#SvgjsG1664" transform="translate(0, 520.8) scale(2.8)" fill="#0f457b"></use><use xlink:href="#SvgjsG1662" transform="translate(0, 607.6) scale(2.8)" fill="#0f457b"></use><use xlink:href="#SvgjsG1664" transform="translate(0, 694.4) scale(2.8)" fill="#0f457b"></use><use xlink:href="#SvgjsG1660" transform="translate(0, 781.1999999999999) scale(2.8)" fill="#0f457b"></use><use xlink:href="#SvgjsG1663" transform="translate(86.8, 0) scale(2.8)" fill="#0f457b"></use><use xlink:href="#SvgjsG1664" transform="translate(86.8, 86.8) scale(2.8)" fill="#0f457b"></use><use xlink:href="#SvgjsG1661" transform="translate(86.8, 173.6) scale(2.8)" fill="#0f457b"></use><use xlink:href="#SvgjsG1663" transform="translate(86.8, 260.4) scale(2.8)" fill="#0f457b"></use><use xlink:href="#SvgjsG1665" transform="translate(86.8, 347.2) scale(2.8)" fill="#0f457b"></use><use xlink:href="#SvgjsG1663" transform="translate(86.8, 434) scale(2.8)" fill="#0f457b"></use><use xlink:href="#SvgjsG1663" transform="translate(86.8, 520.8) scale(2.8)" fill="#0f457b"></use><use xlink:href="#SvgjsG1660" transform="translate(86.8, 607.6) scale(2.8)" fill="#0f457b"></use><use xlink:href="#SvgjsG1662" transform="translate(86.8, 694.4) scale(2.8)" fill="#0f457b"></use><use xlink:href="#SvgjsG1661" transform="translate(86.8, 781.1999999999999) scale(2.8)" fill="#0f457b"></use><use xlink:href="#SvgjsG1664" transform="translate(173.6, 0) scale(2.8)" fill="#0f457b"></use><use xlink:href="#SvgjsG1664" transform="translate(173.6, 86.8) scale(2.8)" fill="#0f457b"></use><use xlink:href="#SvgjsG1661" transform="translate(173.6, 173.6) scale(2.8)" fill="#0f457b"></use><use xlink:href="#SvgjsG1665" transform="translate(173.6, 260.4) scale(2.8)" fill="#0f457b"></use><use xlink:href="#SvgjsG1662" transform="translate(173.6, 347.2) scale(2.8)" fill="#0f457b"></use><use xlink:href="#SvgjsG1665" transform="translate(173.6, 434) scale(2.8)" fill="#0f457b"></use><use xlink:href="#SvgjsG1661" transform="translate(173.6, 520.8) scale(2.8)" fill="#0f457b"></use><use xlink:href="#SvgjsG1661" transform="translate(173.6, 607.6) scale(2.8)" fill="#0f457b"></use><use xlink:href="#SvgjsG1664" transform="translate(173.6, 694.4) scale(2.8)" fill="#0f457b"></use><use xlink:href="#SvgjsG1662" transform="translate(173.6, 781.1999999999999) scale(2.8)" fill="#0f457b"></use><use xlink:href="#SvgjsG1661" transform="translate(260.4, 0) scale(2.8)" fill="#0f457b"></use><use xlink:href="#SvgjsG1665" transform="translate(260.4, 86.8) scale(2.8)" fill="#0f457b"></use><use xlink:href="#SvgjsG1664" transform="translate(260.4, 173.6) scale(2.8)" fill="#0f457b"></use><use xlink:href="#SvgjsG1660" transform="translate(260.4, 260.4) scale(2.8)" fill="#0f457b"></use><use xlink:href="#SvgjsG1663" transform="translate(260.4, 347.2) scale(2.8)" fill="#0f457b"></use><use xlink:href="#SvgjsG1665" transform="translate(260.4, 434) scale(2.8)" fill="#0f457b"></use><use xlink:href="#SvgjsG1661" transform="translate(260.4, 520.8) scale(2.8)" fill="#0f457b"></use><use xlink:href="#SvgjsG1661" transform="translate(260.4, 607.6) scale(2.8)" fill="#0f457b"></use><use xlink:href="#SvgjsG1662" transform="translate(260.4, 694.4) scale(2.8)" fill="#0f457b"></use><use xlink:href="#SvgjsG1662" transform="translate(260.4, 781.1999999999999) scale(2.8)" fill="#0f457b"></use><use xlink:href="#SvgjsG1661" transform="translate(347.2, 0) scale(2.8)" fill="#0f457b"></use><use xlink:href="#SvgjsG1663" transform="translate(347.2, 86.8) scale(2.8)" fill="#0f457b"></use><use xlink:href="#SvgjsG1665" transform="translate(347.2, 173.6) scale(2.8)" fill="#0f457b"></use><use xlink:href="#SvgjsG1661" transform="translate(347.2, 260.4) scale(2.8)" fill="#0f457b"></use><use xlink:href="#SvgjsG1665" transform="translate(347.2, 347.2) scale(2.8)" fill="#0f457b"></use><use xlink:href="#SvgjsG1662" transform="translate(347.2, 434) scale(2.8)" fill="#0f457b"></use><use xlink:href="#SvgjsG1661" transform="translate(347.2, 520.8) scale(2.8)" fill="#0f457b"></use><use xlink:href="#SvgjsG1664" transform="translate(347.2, 607.6) scale(2.8)" fill="#0f457b"></use><use xlink:href="#SvgjsG1665" transform="translate(347.2, 694.4) scale(2.8)" fill="#0f457b"></use><use xlink:href="#SvgjsG1660" transform="translate(347.2, 781.1999999999999) scale(2.8)" fill="#0f457b"></use><use xlink:href="#SvgjsG1660" transform="translate(434, 0) scale(2.8)" fill="#0f457b"></use><use xlink:href="#SvgjsG1660" transform="translate(434, 86.8) scale(2.8)" fill="#0f457b"></use><use xlink:href="#SvgjsG1662" transform="translate(434, 173.6) scale(2.8)" fill="#0f457b"></use><use xlink:href="#SvgjsG1662" transform="translate(434, 260.4) scale(2.8)" fill="#0f457b"></use><use xlink:href="#SvgjsG1663" transform="translate(434, 347.2) scale(2.8)" fill="#0f457b"></use><use xlink:href="#SvgjsG1664" transform="translate(434, 434) scale(2.8)" fill="#0f457b"></use><use xlink:href="#SvgjsG1660" transform="translate(434, 520.8) scale(2.8)" fill="#0f457b"></use><use xlink:href="#SvgjsG1663" transform="translate(434, 607.6) scale(2.8)" fill="#0f457b"></use><use xlink:href="#SvgjsG1665" transform="translate(434, 694.4) scale(2.8)" fill="#0f457b"></use><use xlink:href="#SvgjsG1662" transform="translate(434, 781.1999999999999) scale(2.8)" fill="#0f457b"></use><use xlink:href="#SvgjsG1661" transform="translate(520.8, 0) scale(2.8)" fill="#0f457b"></use><use xlink:href="#SvgjsG1661" transform="translate(520.8, 86.8) scale(2.8)" fill="#0f457b"></use><use xlink:href="#SvgjsG1662" transform="translate(520.8, 173.6) scale(2.8)" fill="#0f457b"></use><use xlink:href="#SvgjsG1664" transform="translate(520.8, 260.4) scale(2.8)" fill="#0f457b"></use><use xlink:href="#SvgjsG1665" transform="translate(520.8, 347.2) scale(2.8)" fill="#0f457b"></use><use xlink:href="#SvgjsG1664" transform="translate(520.8, 434) scale(2.8)" fill="#0f457b"></use><use xlink:href="#SvgjsG1663" transform="translate(520.8, 520.8) scale(2.8)" fill="#0f457b"></use><use xlink:href="#SvgjsG1663" transform="translate(520.8, 607.6) scale(2.8)" fill="#0f457b"></use><use xlink:href="#SvgjsG1663" transform="translate(520.8, 694.4) scale(2.8)" fill="#0f457b"></use><use xlink:href="#SvgjsG1662" transform="translate(520.8, 781.1999999999999) scale(2.8)" fill="#0f457b"></use><use xlink:href="#SvgjsG1662" transform="translate(607.6, 0) scale(2.8)" fill="#0f457b"></use><use xlink:href="#SvgjsG1661" transform="translate(607.6, 86.8) scale(2.8)" fill="#0f457b"></use><use xlink:href="#SvgjsG1662" transform="translate(607.6, 173.6) scale(2.8)" fill="#0f457b"></use><use xlink:href="#SvgjsG1662" transform="translate(607.6, 260.4) scale(2.8)" fill="#0f457b"></use><use xlink:href="#SvgjsG1661" transform="translate(607.6, 347.2) scale(2.8)" fill="#0f457b"></use><use xlink:href="#SvgjsG1660" transform="translate(607.6, 434) scale(2.8)" fill="#0f457b"></use><use xlink:href="#SvgjsG1664" transform="translate(607.6, 520.8) scale(2.8)" fill="#0f457b"></use><use xlink:href="#SvgjsG1661" transform="translate(607.6, 607.6) scale(2.8)" fill="#0f457b"></use><use xlink:href="#SvgjsG1660" transform="translate(607.6, 694.4) scale(2.8)" fill="#0f457b"></use><use xlink:href="#SvgjsG1665" transform="translate(607.6, 781.1999999999999) scale(2.8)" fill="#0f457b"></use><use xlink:href="#SvgjsG1664" transform="translate(694.4, 0) scale(2.8)" fill="#0f457b"></use><use xlink:href="#SvgjsG1660" transform="translate(694.4, 86.8) scale(2.8)" fill="#0f457b"></use><use xlink:href="#SvgjsG1664" transform="translate(694.4, 173.6) scale(2.8)" fill="#0f457b"></use><use xlink:href="#SvgjsG1662" transform="translate(694.4, 260.4) scale(2.8)" fill="#0f457b"></use><use xlink:href="#SvgjsG1660" transform="translate(694.4, 347.2) scale(2.8)" fill="#0f457b"></use><use xlink:href="#SvgjsG1664" transform="translate(694.4, 434) scale(2.8)" fill="#0f457b"></use><use xlink:href="#SvgjsG1664" transform="translate(694.4, 520.8) scale(2.8)" fill="#0f457b"></use><use xlink:href="#SvgjsG1660" transform="translate(694.4, 607.6) scale(2.8)" fill="#0f457b"></use><use xlink:href="#SvgjsG1661" transform="translate(694.4, 694.4) scale(2.8)" fill="#0f457b"></use><use xlink:href="#SvgjsG1661" transform="translate(694.4, 781.1999999999999) scale(2.8)" fill="#0f457b"></use><use xlink:href="#SvgjsG1662" transform="translate(781.1999999999999, 0) scale(2.8)" fill="#0f457b"></use><use xlink:href="#SvgjsG1664" transform="translate(781.1999999999999, 86.8) scale(2.8)" fill="#0f457b"></use><use xlink:href="#SvgjsG1662" transform="translate(781.1999999999999, 173.6) scale(2.8)" fill="#0f457b"></use><use xlink:href="#SvgjsG1660" transform="translate(781.1999999999999, 260.4) scale(2.8)" fill="#0f457b"></use><use xlink:href="#SvgjsG1664" transform="translate(781.1999999999999, 347.2) scale(2.8)" fill="#0f457b"></use><use xlink:href="#SvgjsG1663" transform="translate(781.1999999999999, 434) scale(2.8)" fill="#0f457b"></use><use xlink:href="#SvgjsG1664" transform="translate(781.1999999999999, 520.8) scale(2.8)" fill="#0f457b"></use><use xlink:href="#SvgjsG1662" transform="translate(781.1999999999999, 607.6) scale(2.8)" fill="#0f457b"></use><use xlink:href="#SvgjsG1663" transform="translate(781.1999999999999, 694.4) scale(2.8)" fill="#0f457b"></use><use xlink:href="#SvgjsG1661" transform="translate(781.1999999999999, 781.1999999999999) scale(2.8)" fill="#0f457b"></use></g></defs></svg>