<svg xmlns="http://www.w3.org/2000/svg" version="1.1" xmlns:xlink="http://www.w3.org/1999/xlink" xmlns:svgjs="http://svgjs.com/svgjs" width="1440" height="560" preserveAspectRatio="none" viewBox="0 0 1440 560"><g mask="url(&quot;#SvgjsMask1006&quot;)" fill="none"><rect width="1440" height="560" x="0" y="0" fill="rgba(71, 14, 33, 1)"></rect><path d="M0,465.226C94.355,473.218,196.743,481.283,276.022,429.499C355.149,377.814,364.792,268.73,419.169,191.428C489.961,90.791,664.654,28.679,643.198,-92.478C621.45,-215.287,418.66,-197.827,334.014,-289.425C253.855,-376.168,275.896,-535.844,175.698,-598.374C73.274,-662.293,-66.179,-652.591,-178.986,-609.57C-288.561,-567.782,-367.61,-470.782,-425.821,-368.976C-477.359,-278.841,-472.108,-172.774,-487.454,-70.085C-502.9,33.273,-564.917,143.284,-516.191,235.736C-467.425,328.264,-343.097,342.667,-247.525,385.157C-166.648,421.114,-88.194,457.756,0,465.226" fill="#390b1a"></path><path d="M1440 925.477C1507.813 940.585 1573.979 896.845 1634.1 862.025 1696.586 825.835 1767.101 788.602 1792.828 721.131 1818.253 654.453 1791.946 579.889 1767.201 512.956 1746.035 455.702 1694.865 419.05 1662.109 367.54200000000003 1621.817 304.185 1617.893 213.25400000000002 1552.804 175.82600000000002 1486.173 137.51100000000002 1396.389 141.95499999999998 1326.89 174.78199999999998 1260.034 206.36 1239.628 288.583 1192.85 345.84299999999996 1147.839 400.94 1070.733 435.117 1057.157 504.956 1043.499 575.215 1076.938 650.019 1123.085 704.73 1164.737 754.112 1241.51 749.447 1294.52 786.371 1350.713 825.512 1373.158 910.585 1440 925.477" fill="#551128"></path></g><defs><mask id="SvgjsMask1006"><rect width="1440" height="560" fill="#ffffff"></rect></mask></defs></svg>