<svg xmlns="http://www.w3.org/2000/svg" version="1.1" xmlns:xlink="http://www.w3.org/1999/xlink" xmlns:svgjs="http://svgjs.com/svgjs" width="1920" height="1080" preserveAspectRatio="none" viewBox="0 0 1920 1080"><g mask="url(&quot;#SvgjsMask1051&quot;)" fill="none"><path d="M1453 726L1952 227" stroke-width="10" stroke="url(#SvgjsLinearGradient1052)" stroke-linecap="round" class="BottomLeft"></path><path d="M477 112L-17 606" stroke-width="6" stroke="url(#SvgjsLinearGradient1052)" stroke-linecap="round" class="BottomLeft"></path><path d="M479 1037L916 600" stroke-width="10" stroke="url(#SvgjsLinearGradient1052)" stroke-linecap="round" class="BottomLeft"></path><path d="M331 595L-189 1115" stroke-width="8" stroke="url(#SvgjsLinearGradient1053)" stroke-linecap="round" class="TopRight"></path><path d="M1444 181L2075 -450" stroke-width="10" stroke="url(#SvgjsLinearGradient1052)" stroke-linecap="round" class="BottomLeft"></path><path d="M1244 126L442 928" stroke-width="8" stroke="url(#SvgjsLinearGradient1052)" stroke-linecap="round" class="BottomLeft"></path><path d="M1525 650L2184 -9" stroke-width="8" stroke="url(#SvgjsLinearGradient1052)" stroke-linecap="round" class="BottomLeft"></path><path d="M143 744L813 74" stroke-width="6" stroke="url(#SvgjsLinearGradient1052)" stroke-linecap="round" class="BottomLeft"></path><path d="M784 638L1495 -73" stroke-width="6" stroke="url(#SvgjsLinearGradient1052)" stroke-linecap="round" class="BottomLeft"></path><path d="M464 182L-116 762" stroke-width="6" stroke="url(#SvgjsLinearGradient1053)" stroke-linecap="round" class="TopRight"></path><path d="M1450 353L1055 748" stroke-width="10" stroke="url(#SvgjsLinearGradient1052)" stroke-linecap="round" class="BottomLeft"></path><path d="M751 659L1178 232" stroke-width="8" stroke="url(#SvgjsLinearGradient1053)" stroke-linecap="round" class="TopRight"></path><path d="M996 74L1355 -285" stroke-width="10" stroke="url(#SvgjsLinearGradient1052)" stroke-linecap="round" class="BottomLeft"></path><path d="M1866 1057L1483 1440" stroke-width="6" stroke="url(#SvgjsLinearGradient1053)" stroke-linecap="round" class="TopRight"></path><path d="M273 20L-139 432" stroke-width="8" stroke="url(#SvgjsLinearGradient1053)" stroke-linecap="round" class="TopRight"></path><path d="M894 254L572 576" stroke-width="10" stroke="url(#SvgjsLinearGradient1053)" stroke-linecap="round" class="TopRight"></path><path d="M300 736L690 346" stroke-width="8" stroke="url(#SvgjsLinearGradient1052)" stroke-linecap="round" class="BottomLeft"></path><path d="M179 317L-523 1019" stroke-width="10" stroke="url(#SvgjsLinearGradient1052)" stroke-linecap="round" class="BottomLeft"></path><path d="M1880 943L1559 1264" stroke-width="8" stroke="url(#SvgjsLinearGradient1052)" stroke-linecap="round" class="BottomLeft"></path><path d="M1606 408L2024 -10" stroke-width="6" stroke="url(#SvgjsLinearGradient1053)" stroke-linecap="round" class="TopRight"></path><path d="M1915 963L1289 1589" stroke-width="8" stroke="url(#SvgjsLinearGradient1052)" stroke-linecap="round" class="BottomLeft"></path><path d="M647 396L949 94" stroke-width="8" stroke="url(#SvgjsLinearGradient1052)" stroke-linecap="round" class="BottomLeft"></path><path d="M90 152L-449 691" stroke-width="6" stroke="url(#SvgjsLinearGradient1052)" stroke-linecap="round" class="BottomLeft"></path><path d="M892 912L1475 329" stroke-width="8" stroke="url(#SvgjsLinearGradient1052)" stroke-linecap="round" class="BottomLeft"></path><path d="M1857 92L2296 -347" stroke-width="10" stroke="url(#SvgjsLinearGradient1053)" stroke-linecap="round" class="TopRight"></path><path d="M1270 200L2018 -548" stroke-width="10" stroke="url(#SvgjsLinearGradient1053)" stroke-linecap="round" class="TopRight"></path><path d="M1000 433L621 812" stroke-width="10" stroke="url(#SvgjsLinearGradient1053)" stroke-linecap="round" class="TopRight"></path><path d="M968 798L1645 121" stroke-width="10" stroke="url(#SvgjsLinearGradient1052)" stroke-linecap="round" class="BottomLeft"></path><path d="M470 502L1094 -122" stroke-width="6" stroke="url(#SvgjsLinearGradient1052)" stroke-linecap="round" class="BottomLeft"></path><path d="M665 374L169 870" stroke-width="10" stroke="url(#SvgjsLinearGradient1053)" stroke-linecap="round" class="TopRight"></path><path d="M1193 75L773 495" stroke-width="8" stroke="url(#SvgjsLinearGradient1053)" stroke-linecap="round" class="TopRight"></path><path d="M1172 518L1929 -239" stroke-width="8" stroke="url(#SvgjsLinearGradient1053)" stroke-linecap="round" class="TopRight"></path><path d="M5 475L641 -161" stroke-width="8" stroke="url(#SvgjsLinearGradient1052)" stroke-linecap="round" class="BottomLeft"></path><path d="M953 72L1686 -661" stroke-width="10" stroke="url(#SvgjsLinearGradient1053)" stroke-linecap="round" class="TopRight"></path><path d="M1394 4L2097 -699" stroke-width="10" stroke="url(#SvgjsLinearGradient1053)" stroke-linecap="round" class="TopRight"></path><path d="M215 748L646 317" stroke-width="8" stroke="url(#SvgjsLinearGradient1052)" stroke-linecap="round" class="BottomLeft"></path><path d="M1641 91L2047 -315" stroke-width="6" stroke="url(#SvgjsLinearGradient1052)" stroke-linecap="round" class="BottomLeft"></path><path d="M759 547L1313 -7" stroke-width="6" stroke="url(#SvgjsLinearGradient1053)" stroke-linecap="round" class="TopRight"></path><path d="M1429 109L800 738" stroke-width="8" stroke="url(#SvgjsLinearGradient1052)" stroke-linecap="round" class="BottomLeft"></path><path d="M1905 225L2385 -255" stroke-width="6" stroke="url(#SvgjsLinearGradient1052)" stroke-linecap="round" class="BottomLeft"></path><path d="M364 604L992 -24" stroke-width="8" stroke="url(#SvgjsLinearGradient1053)" stroke-linecap="round" class="TopRight"></path><path d="M1848 671L1463 1056" stroke-width="6" stroke="url(#SvgjsLinearGradient1052)" stroke-linecap="round" class="BottomLeft"></path><path d="M1108 535L756 887" stroke-width="6" stroke="url(#SvgjsLinearGradient1053)" stroke-linecap="round" class="TopRight"></path><path d="M1220 1008L731 1497" stroke-width="10" stroke="url(#SvgjsLinearGradient1053)" stroke-linecap="round" class="TopRight"></path><path d="M541 686L-225 1452" stroke-width="10" stroke="url(#SvgjsLinearGradient1053)" stroke-linecap="round" class="TopRight"></path><path d="M203 236L-188 627" stroke-width="10" stroke="url(#SvgjsLinearGradient1053)" stroke-linecap="round" class="TopRight"></path><path d="M208 802L-112 1122" stroke-width="8" stroke="url(#SvgjsLinearGradient1053)" stroke-linecap="round" class="TopRight"></path><path d="M1258 615L600 1273" stroke-width="6" stroke="url(#SvgjsLinearGradient1053)" stroke-linecap="round" class="TopRight"></path><path d="M803 806L112 1497" stroke-width="6" stroke="url(#SvgjsLinearGradient1053)" stroke-linecap="round" class="TopRight"></path><path d="M1168 439L869 738" stroke-width="8" stroke="url(#SvgjsLinearGradient1052)" stroke-linecap="round" class="BottomLeft"></path><path d="M56 92L-342 490" stroke-width="8" stroke="url(#SvgjsLinearGradient1052)" stroke-linecap="round" class="BottomLeft"></path><path d="M725 809L-20 1554" stroke-width="8" stroke="url(#SvgjsLinearGradient1053)" stroke-linecap="round" class="TopRight"></path><path d="M455 929L-27 1411" stroke-width="10" stroke="url(#SvgjsLinearGradient1052)" stroke-linecap="round" class="BottomLeft"></path><path d="M605 838L1183 260" stroke-width="10" stroke="url(#SvgjsLinearGradient1053)" stroke-linecap="round" class="TopRight"></path><path d="M778 30L290 518" stroke-width="10" stroke="url(#SvgjsLinearGradient1053)" stroke-linecap="round" class="TopRight"></path><path d="M242 231L-369 842" stroke-width="8" stroke="url(#SvgjsLinearGradient1052)" stroke-linecap="round" class="BottomLeft"></path></g><defs><mask id="SvgjsMask1051"><rect width="1920" height="1080" fill="#ffffff"></rect></mask><linearGradient x1="100%" y1="0%" x2="0%" y2="100%" id="SvgjsLinearGradient1052"><stop stop-color="rgba(28, 83, 142, 0)" offset="0"></stop><stop stop-color="#1c538e" offset="1"></stop></linearGradient><linearGradient x1="0%" y1="100%" x2="100%" y2="0%" id="SvgjsLinearGradient1053"><stop stop-color="rgba(28, 83, 142, 0)" offset="0"></stop><stop stop-color="#1c538e" offset="1"></stop></linearGradient></defs></svg>