<svg xmlns="http://www.w3.org/2000/svg" version="1.1" xmlns:xlink="http://www.w3.org/1999/xlink" xmlns:svgjs="http://svgjs.com/svgjs" width="1440" height="2000" preserveAspectRatio="none" viewBox="0 0 1440 2000"><g mask="url(&quot;#SvgjsMask1016&quot;)" fill="none"><rect width="1440" height="2000" x="0" y="0" fill="rgba(225, 225, 225, 1)"></rect><path d="M1209.63 550.03L1236.4 550.03L1236.4 681.99L1209.63 681.99z" stroke="rgba(208, 169, 169, 1)"></path><path d="M1259.38 1179.63 a139.63 139.63 0 1 0 279.26 0 a139.63 139.63 0 1 0 -279.26 0z" fill="rgba(137, 187, 203, 1)"></path><path d="M340.42 545.21L404.95 545.21L404.95 609.74L340.42 609.74z" fill="rgba(208, 169, 169, 1)"></path><path d="M539.33 1728.48a107.13 107.13 0 1 0 40.32 210.43z" stroke="rgba(208, 169, 169, 1)"></path><path d="M1057.73 1564.62L1084.68 1564.62L1084.68 1591.57L1057.73 1591.57z" stroke="rgba(210, 200, 137, 1)"></path><path d="M94.82 1476.11a60.89 60.89 0 1 0 69.97 99.66z" stroke="rgba(210, 200, 137, 1)"></path><path d="M956.13 24.43a19.48 19.48 0 1 0 38.92 1.68z" fill="rgba(137, 187, 203, 1)"></path><path d="M545.99 1849.68L667.96 1849.68L667.96 1853.33L545.99 1853.33z" fill="rgba(210, 200, 137, 1)"></path><path d="M1019.38 1494.71L1052.61 1494.71L1052.61 1527.94L1019.38 1527.94z" fill="rgba(210, 200, 137, 1)"></path><path d="M340.47 456.65L432.28 456.65L432.28 487.92L340.47 487.92z" fill="rgba(210, 200, 137, 1)"></path><path d="M598.15 1113.89L660.48 1113.89L660.48 1249.12L598.15 1249.12z" fill="rgba(137, 187, 203, 1)"></path><path d="M815.57 414.15a38.07 38.07 0 1 0 75.1-12.53z" stroke="rgba(208, 169, 169, 1)"></path><path d="M220.04 1790.04 a22.47 22.47 0 1 0 44.94 0 a22.47 22.47 0 1 0 -44.94 0z" fill="rgba(137, 187, 203, 1)"></path><path d="M954.58 1765.69 a30.28 30.28 0 1 0 60.56 0 a30.28 30.28 0 1 0 -60.56 0z" stroke="rgba(208, 169, 169, 1)"></path><path d="M-6.86 842.56 a81.85 81.85 0 1 0 163.7 0 a81.85 81.85 0 1 0 -163.7 0z" stroke="rgba(210, 200, 137, 1)"></path><path d="M346.37 353.43L420.91 353.43L420.91 427.97L346.37 427.97z" fill="rgba(210, 200, 137, 1)"></path><path d="M1305.12 693.64a35.89 35.89 0 1 0 16.55 69.84z" stroke="rgba(208, 169, 169, 1)"></path><path d="M1292.87 135.91L1427.19 135.91L1427.19 270.23L1292.87 270.23z" stroke="rgba(210, 200, 137, 1)"></path></g><defs><mask id="SvgjsMask1016"><rect width="1440" height="2000" fill="#ffffff"></rect></mask></defs></svg>