<svg xmlns="http://www.w3.org/2000/svg" version="1.1" xmlns:xlink="http://www.w3.org/1999/xlink" xmlns:svgjs="http://svgjs.com/svgjs" width="1440" height="560" preserveAspectRatio="none" viewBox="0 0 1440 560"><g mask="url(&quot;#SvgjsMask1018&quot;)" fill="none"><rect width="1440" height="560" x="0" y="0" fill="rgba(4, 35, 25, 1)"></rect><circle r="6.28" cx="570.56" cy="40.13" filter="url(#SvgjsFilter1019)" fill="rgba(21, 69, 29, 0.58)"></circle><circle r="8.23" cx="262.98" cy="497.77000000000004" filter="url(#SvgjsFilter1019)" fill="rgba(21, 69, 29, 0.58)"></circle><circle r="8.71" cx="651.86" cy="212.98000000000002" filter="url(#SvgjsFilter1019)" fill="rgba(21, 69, 29, 0.58)"></circle><circle r="8.535" cx="238.685" cy="147.555" filter="url(#SvgjsFilter1019)" fill="rgba(21, 69, 29, 0.58)"></circle><circle r="7.06" cx="15.98" cy="55.050000000000004" filter="url(#SvgjsFilter1019)" fill="rgba(21, 69, 29, 0.58)"></circle><circle r="6.4" cx="793.22" cy="323.02" filter="url(#SvgjsFilter1019)" fill="rgba(21, 69, 29, 0.58)"></circle><circle r="5.7" cx="470.2" cy="513.1700000000001" filter="url(#SvgjsFilter1019)" fill="rgba(21, 69, 29, 0.58)"></circle><circle r="9.24" cx="458.12" cy="169.22" filter="url(#SvgjsFilter1019)" fill="rgba(21, 69, 29, 0.58)"></circle><circle r="8.13" cx="618.91" cy="561.02" filter="url(#SvgjsFilter1019)" fill="rgba(21, 69, 29, 0.58)"></circle><circle r="7.25" cx="438.57" cy="269.11" filter="url(#SvgjsFilter1019)" fill="rgba(21, 69, 29, 0.58)"></circle><circle r="5.375" cx="807.045" cy="90.825" filter="url(#SvgjsFilter1019)" fill="rgba(21, 69, 29, 0.58)"></circle><circle r="5.44" cx="755.4000000000001" cy="334.01" filter="url(#SvgjsFilter1019)" fill="rgba(21, 69, 29, 0.58)"></circle><circle r="6.87" cx="526.65" cy="447.35" filter="url(#SvgjsFilter1019)" fill="rgba(21, 69, 29, 0.58)"></circle><circle r="7.335" cx="102.765" cy="557.615" filter="url(#SvgjsFilter1019)" fill="rgba(21, 69, 29, 0.58)"></circle><circle r="5.865" cx="832.035" cy="519.965" filter="url(#SvgjsFilter1019)" fill="rgba(21, 69, 29, 0.58)"></circle><circle r="6.36" cx="257.32" cy="482.77000000000004" filter="url(#SvgjsFilter1019)" fill="rgba(21, 69, 29, 0.58)"></circle><circle r="5.38" cx="63.870000000000005" cy="131.46" filter="url(#SvgjsFilter1019)" fill="rgba(21, 69, 29, 0.58)"></circle><circle r="7.88" cx="736.97" cy="223.07" filter="url(#SvgjsFilter1019)" fill="rgba(21, 69, 29, 0.58)"></circle><circle r="6.425" cx="1012.1049999999999" cy="500.325" filter="url(#SvgjsFilter1019)" fill="rgba(21, 69, 29, 0.58)"></circle><circle r="5.925" cx="1196.165" cy="420.315" filter="url(#SvgjsFilter1019)" fill="rgba(21, 69, 29, 0.58)"></circle><path d="M344.7 42L356.7 64.5 353.8 73.4 349.7 65.8C349.5 64.8 348.5 64.7 347.6 65 347 65.4 346.6 66.5 347.1 67L352.4 77.6 349.8 86.4 343.7 79.6 344.3 67.7C344.3 67.7 344.2 67.4 344.2 67.4 344.1 66.7 343.3 66.3 342.6 66.1 341.7 66.3 341.1 66.7 341 67.8L340.7 76.4 334.5 69.6 335.3 44.1C335.3 44.1 335.6 43.7 335.6 43.7 335.4 43.1 334.6 42.6 334 42.4 332.9 42.3 332.2 43.2 332.4 44.1L331.5 66.3 323.7 58.2 324.1 48.3C324.1 48.3 324.1 48.3 324.1 48 323.9 47.3 323.5 46.8 322.8 46.6 321.8 46.8 321 47.4 320.9 48.4L320.7 55 315.1 49C314.6 48.2 313.6 48.4 313.1 48.8 312.2 49.3 312.1 50.3 313 51.1L318.3 57.2 311.9 56.6C311 56.8 310.1 57.4 310.3 58.3 310.2 59.3 310.7 59.9 311.7 60L321.6 60.3 329 68.5 306.5 67.7C305.8 67.5 305 68.4 304.9 69.4 305.1 70 305.6 70.9 306.6 71L332.1 71.7 338.2 78.6 329.6 78.2C328.6 78.1 328.1 78.9 328 79.9 327.8 80.6 328.7 81.4 329.4 81.5L341.2 81.8 347.7 88.6 338.6 90.6 328.7 84.3C327.9 83.8 327 84.1 326.5 84.8 325.9 85.3 326.2 86.5 327 87L334.3 91.6 325.2 93.6 303.7 79.8C302.9 79.3 302 79.5 301.5 80.3 301 81.1 301.3 82 302 82.5L320.8 94.6 310.2 97 301.8 91.7C301 91.2 300.1 91.5 299.6 92.2 299.1 93 299.4 93.9 300.1 94.4L305.6 98.1 297.8 99.9C296.8 100.1 296.3 100.8 296.5 101.8 296.8 102.7 297.5 103.2 298.5 103L306.3 101.2 302.9 106.6C302.4 107.3 302.6 108.3 303.4 108.8S305.1 109 305.6 108.3L310.6 100.2 321.6 97.8 309.7 116.5C309.2 117.3 309.5 118.2 310.2 118.7 311 119.2 311.9 119 312.4 118.2L325.9 96.8 335 94.7 330.4 102C329.9 102.8 330.1 103.7 330.9 104.2 331.6 104.7 332.6 104.4 333.1 103.7L339.3 93.7 348.1 91.7 345.4 100.2 334.9 105.9C334.3 106.3 333.9 107.4 334.4 108 334.9 108.8 335.6 109 336.5 108.8L344.1 104.8 341.5 113.3 318.9 125.3C318.1 125.8 317.9 126.5 318.1 127.4 318.6 128.3 319.6 128.4 320.3 128.2L340.2 117.8 336.7 128.4 328.2 133C327.3 133.2 327.2 134.2 327.4 135.1 327.9 135.7 328.9 136.1 329.8 135.6L335.4 132.7 333.2 140.4C332.7 141.2 333.2 142 334.3 142.4 335 142.6 335.9 142.1 336 141.4L338.5 133.6 341.5 139.5C342 140.4 343 140.5 343.6 140 344.5 139.8 344.7 139.1 344.6 138.5 344.5 138.2 344.5 138.2 344.4 137.9L339.9 129.4 343.4 118.7 353.7 138.4C353.9 139.3 354.9 139.4 355.9 139.2 356.4 138.7 356.6 138 356.5 137.4 356.4 137.1 356.4 137.1 356.4 137.1L344.6 114.2 347.3 105.7 351.3 113.3C351.9 114.2 352.5 114.4 353.5 114.1 354 113.7 354.5 112.9 354.4 112.3 354.3 112 354.3 112 354.2 111.7L348.6 101.1 351.2 92.7 357.3 99.2 357 111C356.9 112 357.8 112.8 358.5 113 359.4 112.8 360.3 112.3 360.1 111.3L360.4 102.7 366.8 109.2 365.8 135C365.6 135.7 366.4 136.5 367.1 136.6 368.1 136.4 368.9 135.9 369 134.9L369.9 112.7 377.3 120.9 376.9 130.5C376.8 131.5 377.6 132.3 378.6 132.1 379.2 132.3 380.1 131.7 380.2 130.7L380.4 124.1 386 130.1C386.4 130.6 387.4 130.7 388.3 130.2 388.5 129.8 388.7 129.1 388.6 128.5 388.6 128.5 388.5 128.2 388.4 127.9L382.8 121.9 389.4 122.1C390.1 122.3 390.9 121.4 391.1 120.7 391 120.4 391 120.4 391 120.4 390.8 119.5 390 119 389.4 119.1L379.8 118.7 372 110.6 394.5 111.4C395.5 111.2 396 110.7 396.1 109.7 396.1 109.7 396.1 109.4 396.1 109.4 395.9 108.8 395.5 108.2 394.5 108.1L368.9 107 362.9 100.5 371.5 100.9C372.4 100.7 373.3 100.1 373.1 99.2 373.4 99.1 373.3 98.8 373.3 98.8 373.2 98.2 372.4 97.7 371.7 97.5L359.8 97.3 353.7 90.5 362.4 88.5 372.4 94.8C373.2 95.2 374.4 95 374.9 94.2 375.1 93.5 374.8 92.6 374.4 92L366.8 87.5 375.9 85.4 397.3 99C398.1 99.4 399 99.2 399.5 98.5 400 97.7 399.7 96.8 399 96.3L380.2 84.5 391.1 82 399.2 87.1C400 87.5 400.9 87.3 401.4 86.6S401.6 84.9 400.9 84.4L395.5 81 403.3 79.2C404.3 79 404.7 78.2 404.5 77.3 404.3 76.4 403.5 75.9 402.6 76.1L394.8 77.9 398.1 72.2C398.4 71.8 398.6 71.4 398.5 71.1 398.5 70.8 398 70.3 397.6 70 396.9 69.5 395.9 69.7 395.4 70.5L390.4 78.9 379.5 81.3 391.3 62.3C391.5 61.9 391.8 61.5 391.7 61.2 391.6 60.9 391.2 60.3 390.8 60.1 390 59.6 389.1 59.8 388.6 60.6L375.1 82.3 366.1 84.4 371 77C371.2 76.7 371.1 76 371 75.7 371 75.4 370.9 75.1 370.5 74.9 369.7 74.4 368.5 74.7 368.3 75.3L361.7 85.4 353 87.4 355.6 78.6 366.2 73.2C366.7 72.7 367.2 72 367.1 71.4 367 71 367 71 366.7 71.1 366.5 70.2 365.4 69.8 364.5 70.3L356.9 74.3 359.5 65.5 382.5 53.8C383 53.3 383.2 52.6 383 52 383 51.7 383 51.7 383 51.7 382.4 50.8 381.7 50.3 380.8 50.9L360.9 61.3 364.4 50.6 372.8 46.1C373.7 45.6 373.9 44.9 373.7 44.3 373.7 44.3 373.7 43.9 373.7 43.9 373.1 43.1 372.1 43 371.5 43.1L365.7 46.4 368.2 38.6C368.1 38.3 368.1 38 368 37.7 367.9 37.4 367.5 36.8 367.1 36.6 366.1 36.5 365.1 36.7 365 37.7L362.5 45.5 359.6 39.6C359 38.7 358 38.6 357.4 38.8 356.5 39.3 356.4 40.3 356.6 41.2L361.2 49.7 358 60.3 347.7 40.7C347.1 39.8 346.1 39.4 345.5 39.8 344.6 40.4 344.2 41.1 344.7 42Z" fill="rgba(21, 69, 29, 0.58)"></path><path d="M1224.1 469.8L1220.8 418.9 1233.4 405.1 1234.4 422.3C1234.1 424.2 1235.8 425.2 1237.7 425.6 1239.1 425.2 1240.7 423.6 1240.3 422.2L1239.3 398.5 1251.2 384.6 1256.8 402 1246 423.3C1246 423.3 1245.9 424 1245.9 424 1245.6 425.2 1246.6 426.7 1247.7 427.6 1249.6 428 1251 427.6 1252 425.9L1259.7 410.4 1265.3 427.9 1242.9 473.7C1242.9 473.7 1242.2 474.2 1242.2 474.2 1241.9 475.4 1242.9 476.9 1244.1 477.8 1245.8 478.8 1248 477.9 1248.3 476.1L1268.2 436.3 1275.6 457.4 1266.8 475.2C1266.8 475.2 1266.8 475.2 1266.7 475.9 1266.4 477.1 1266.8 478.5 1267.9 479.4 1269.8 479.8 1271.8 479.5 1272.8 477.8L1278.5 465.9 1283.8 481.3C1284.1 483.3 1286 483.7 1287.4 483.3 1289.4 483.1 1290.4 481.3 1289.5 479.2L1284.8 463.9 1295.9 470C1297.8 470.4 1299.8 470.2 1300.2 468.3 1301.2 466.5 1300.8 465.2 1299.1 464.2L1281.3 455.3 1274.4 434.3 1314.8 454.3C1315.9 455.2 1318.1 454.3 1319.1 452.5 1319.3 451.3 1319.1 449.3 1317.3 448.3L1271.6 425.9 1266 408.5 1281.4 416.2C1283.2 417.2 1284.7 416.2 1285.7 414.4 1286.6 413.3 1285.7 411.2 1284.6 410.3L1263.1 400 1256.9 382.4 1275.1 386.1 1288.1 405.8C1289.1 407.3 1291 407.7 1292.5 406.7 1293.9 406.3 1294.4 403.8 1293.4 402.3L1283.9 387.9 1302.1 391.6 1329.9 434.5C1330.9 436 1332.8 436.4 1334.3 435.4 1335.8 434.4 1336.2 432.5 1335.2 431L1310.8 393.4 1332.2 397.7 1343.2 414.3C1344.2 415.8 1346 416.2 1347.5 415.2 1349.1 414.2 1349.4 412.3 1348.4 410.8L1341.6 399.6 1357.2 402.8C1359.1 403.2 1360.6 402.2 1361 400.3 1361.4 398.4 1360.4 396.9 1358.5 396.6L1342.8 393.4 1353.4 386.4C1354.9 385.4 1355.3 383.5 1354.3 382S1351.4 380.1 1349.9 381.1L1334.1 391.6 1312.1 387.1 1349.1 362.6C1350.6 361.6 1351 359.8 1350 358.2 1349 356.7 1347.1 356.4 1345.6 357.4L1303.3 385.3 1285.1 381.7 1299.5 372.2C1301 371.2 1301.4 369.3 1300.4 367.8 1299.4 366.3 1297.5 365.9 1296 366.9L1276.4 379.9 1258.8 376.3 1270.6 363 1294.5 361.3C1295.9 361 1297.5 359.3 1297.1 358 1296.9 356 1295.8 355.1 1293.9 354.7L1276.7 355.8 1288.5 342.5 1339.5 339.1C1341.5 338.9 1342.4 337.8 1342.8 335.9 1342.5 333.9 1340.8 332.9 1339.5 332.6L1294.6 335.2 1309.7 318.7 1328.9 317.4C1330.8 317.8 1331.8 316 1332.2 314.1 1331.8 312.8 1330.2 311.1 1328.2 311.4L1315.6 312.1 1325.9 299.8C1327.4 298.8 1327.2 296.8 1325.6 295.2 1324.4 294.3 1322.4 294.5 1321.5 295.7L1310.6 307.8 1310 294.6C1309.8 292.6 1308 291.6 1306.6 292 1304.7 291.6 1303.9 292.7 1303.6 294 1303.5 294.6 1303.5 294.6 1303.3 295.2L1304.7 314.4 1289.6 331 1286.8 286.6C1287.2 284.8 1285.4 283.8 1283.6 283.4 1282.2 283.7 1281.3 284.9 1281 286.1 1280.9 286.8 1280.9 286.8 1280.9 286.8L1283.5 338.2 1271.7 351.5 1270.6 334.3C1270.4 332.3 1269.2 331.4 1267.3 331 1266 331.4 1264.5 332.4 1264.2 333.6 1264.1 334.3 1264.1 334.3 1263.9 334.9L1265.6 358.8 1253.8 372 1248.1 355.2 1258.3 333.8C1259.3 332 1258.4 329.9 1257.3 329 1255.4 328.6 1253.4 328.8 1253 330.7L1245.3 346.1 1239 329.2 1262.1 282.9C1263 281.8 1262.1 279.7 1261 278.8 1259.1 278.4 1257.1 278.6 1256.1 280.4L1236.2 320.1 1229.4 299.2 1238.1 282C1239.1 280.2 1238.3 278.1 1236.4 277.7 1235.2 276.8 1233.2 277.1 1232.2 278.8L1226.5 290.7 1221.2 275.3C1220.8 273.9 1219.1 272.9 1217.1 273.1 1216.3 273.6 1215.4 274.8 1215.2 276 1215.2 276 1215 276.6 1214.9 277.3L1220.3 292.7 1208.4 287C1207.2 286.2 1205.1 287 1204.2 288.2 1204.1 288.8 1204.1 288.8 1204.1 288.8 1203.7 290.7 1204.7 292.2 1206 292.4L1223.1 301.1 1230.6 322.2 1190.2 302.3C1188.4 301.9 1187 302.3 1186 304 1186 304 1185.8 304.7 1185.8 304.7 1185.6 305.9 1186 307.3 1187.7 308.3L1233.3 331.3 1239.1 348.1 1223.6 340.4C1221.8 340 1219.7 340.3 1219.4 342.2 1218.7 342 1218.6 342.7 1218.6 342.7 1218.4 343.9 1219.4 345.4 1220.5 346.3L1241.9 356.5 1247.5 374 1229.9 370.4 1217 350.8C1216 349.3 1213.4 348.8 1211.9 349.8 1211.1 350.9 1210.7 352.8 1211 354.2L1221.2 368.7 1203 365 1175 322.7C1174 321.2 1172.1 320.8 1170.6 321.8 1169.1 322.8 1168.7 324.7 1169.7 326.2L1194.2 363.2 1172.2 358.7 1161.8 342.9C1160.8 341.4 1158.9 341 1157.4 342S1155.5 344.9 1156.5 346.4L1163.5 356.9 1147.8 353.8C1145.9 353.4 1144.4 354.4 1144 356.3 1143.6 358.1 1144.6 359.6 1146.5 360L1162.2 363.2 1151.5 370.8C1150.7 371.3 1150 371.8 1149.9 372.5 1149.7 373.1 1150.1 374.5 1150.6 375.2 1151.6 376.7 1153.5 377.1 1155 376.1L1171 365 1192.9 369.5 1155.8 394.6C1155.1 395.1 1154.3 395.6 1154.2 396.2 1154.1 396.8 1154.4 398.2 1154.9 399 1155.9 400.5 1157.8 400.9 1159.3 399.9L1201.7 371.2 1219.9 374.9 1204.9 384.3C1204.2 384.8 1203.9 386.1 1203.8 386.7 1203.7 387.3 1203.5 387.9 1204 388.7 1205 390.2 1207.5 390.7 1208.4 389.6L1228.7 376.7 1246.2 380.3 1234.3 394.2 1210.5 395.2C1209.2 395.6 1207.7 396.6 1207.4 397.9 1207.3 398.5 1207.3 398.5 1207.9 398.6 1207.5 400.5 1209.1 402.1 1211.2 401.9L1228.4 400.8 1216.4 414.7 1164.9 417.3C1163.5 417.7 1162.7 418.8 1162.4 420.1 1162.3 420.7 1162.3 420.7 1162.3 420.7 1162.5 422.7 1163.5 424.2 1165.5 424L1210.5 421.3 1195.4 437.9 1176.1 439.2C1174.1 439.4 1173.3 440.6 1173 441.8 1173 441.8 1172.9 442.4 1172.9 442.4 1173.1 444.5 1174.9 445.5 1176.1 445.7L1189.4 444.5 1178.5 456.6C1178.4 457.3 1178.2 457.9 1178.1 458.5 1178 459.2 1178.3 460.5 1178.8 461.3 1180.6 462.3 1182.5 462.7 1183.5 460.9L1194.4 448.8 1195 462C1195.3 464 1197 465 1198.3 465.2 1200.3 465 1201.3 463.2 1201.7 461.4L1200.4 442.2 1214.8 425.5 1217.6 469.8C1217.8 471.8 1219.5 473.5 1220.9 473.1 1222.9 472.8 1224.4 471.8 1224.1 469.8Z" fill="rgba(21, 69, 29, 0.58)"></path><path d="M130.3 177L167.9 190.2 183 222.3 147.6 219.4 122.1 188.8C122.1 188.8 121.7 188.6 121.7 188.6 120.9 188 119.6 188.3 118.6 188.8 117.4 189.7 117.4 191.4 118.6 192.2L141 218.9 123.8 217.5 113.8 205.9C113.8 205.9 113.4 205.6 113.4 205.6 112.6 205.1 111.3 205.3 110.3 205.8 109.1 206.7 109.1 208.5 110.3 209.3L116.9 217.4 104.3 216.2C103.2 216.1 101.7 217.4 101.6 218.4 101.1 219.9 102.7 221 103.8 221.1L116.4 222.3 108.3 228.9C107.1 229.9 107.1 231.6 108.2 232.4 109.2 233.6 110.9 233.7 111.7 232.5L123.3 222.4 140.2 224.2 113.6 246.6C112.4 247.5 112.3 249.3 113.5 250.1 114.4 251.3 116.2 251.3 117 250.1L147.5 224.6 182.9 227.5 162.4 257.1 123 264.2C121.6 264.5 120.8 265.7 121.1 267 121.3 268.3 122.5 269.1 123.8 268.9L158.6 262.6 148.7 276.8 134 279.5C132.7 279.7 131.9 280.9 132.1 282.2 132.4 283.6 133.5 284.4 134.9 284.1L144.9 282.3 137.2 293.4C136 294.3 136.7 295.9 137.8 296.7 139 297.5 140.4 297.3 141.2 296.1L148.3 285.9 150.1 295.9C150.4 297.2 151.5 298 152.9 297.8S155 296.4 154.8 295L152.1 280.3 162 266.1 168.3 300.9C168.5 302.2 169.7 303 171 302.8 172.4 302.5 173.2 301.3 172.9 300L165.8 260.6 186 231.4 201.2 263.5 188.1 300C187.7 301.5 188.6 302.7 189.8 303.5 191.2 303.9 192.5 303 193.3 301.8L204.9 269 212.2 284.6 206.9 299C206.5 300.5 207.4 301.7 208.6 302.5 210 302.9 211.2 302 211.8 301.2L215.2 291.3 220.7 302.7C221.2 303.7 222.8 304.8 224 303.9 225.2 302.9 226 301.8 225.1 300.5L219.6 289.1 229.5 292.5C231 292.9 232.2 292 232.7 291.2 232.9 290.2 232.7 288.8 231.9 288.3 231.9 288.3 231.5 288 231.5 288L217.1 282.7 209.7 267.1 242.6 278.8C244 279.2 245.2 278.3 245.8 277.5 245.9 276.4 245.7 275.1 244.9 274.5 244.9 274.5 244.5 274.3 244.5 274.3L206.9 261.1 191.8 229 227.2 231.9 252.7 262.4C253.6 263.6 255.3 263.7 256.2 262.5 257.4 261.6 257.4 259.9 256.2 259L233.8 232.4 251 233.8 261 245.4C261.9 246.6 263.6 246.7 264.5 245.5 265.7 244.6 265.7 242.8 264.5 242L257.9 233.9 270.5 235.1C271.6 235.2 273.1 233.9 273.2 232.8 273.4 231.8 272.8 230.8 272.1 230.3 271.7 230 271.3 229.7 270.6 229.9L258 228.7 266.1 222.1C267.3 221.2 267.3 219.4 266.1 218.6 266.1 218.6 265.7 218.3 265.7 218.3 265 217.8 263.6 218 262.7 218.5L251 228.6 233.9 227.2 260.5 204.8C261.7 203.9 261.8 202.1 260.6 201.3 260.6 201.3 260.2 201.1 260.2 201.1 259.4 200.5 258.1 200.7 257.1 201.3L226.6 226.8 191.2 223.9 211.4 194.7 250.9 187.6C252.2 187.3 253 186.1 252.8 184.8 252.5 183.5 251.3 182.7 250 182.9L215.5 188.8 225.4 174.6 240.1 171.9C241.4 171.7 242.2 170.5 242 169.2S240.6 167 239.2 167.3L229.2 169.1 236.3 158.8C237.1 157.6 236.9 156.3 235.7 155.5 234.5 154.7 233.2 154.9 232.4 156.1L225.3 166.3 223.5 156.3C223.3 155.7 223.2 155 222.4 154.4S221 154 220.3 154.1C219 154.4 218.1 155.6 218.4 156.9L221.1 171.6 211.2 185.8 204.9 151.1C204.8 150.4 204.7 149.7 203.9 149.2 203.5 148.9 202.4 148.8 201.8 148.9 200.4 149.1 199.6 150.3 199.8 151.6L207 191 186.8 220.2 171.6 188.1 184.8 150.6C185 149.5 184.7 148.2 183.9 147.6 183.9 147.6 183.5 147.3 183.5 147.3 182.1 146.9 180.9 147.8 180.3 148.6L168.7 181.4 161.4 165.9 166.7 151.4C166.8 150.4 166.6 149 165.8 148.5 165.8 148.5 165.4 148.2 165.4 148.2 164 147.8 162.7 148.7 162.2 149.5L158.8 159.4 153.3 148C152.9 147.7 152.8 147.1 152.4 146.8 151.6 146.2 150.5 146.1 149.6 146.6 148.4 147.5 147.6 148.7 148.5 149.9L154 161.3 144.1 158C142.6 157.5 141.4 158.4 140.9 159.2 140.4 160.7 141.3 161.9 142.1 162.4L156.5 167.8 163.9 183.3 131 171.7C129.6 171.3 128.4 172.2 127.8 173 128.2 175 128.8 176.6 130.3 177Z" fill="rgba(21, 69, 29, 0.58)"></path><path d="M704.1 25.9L702.6 37 697.1 33.1C696.5 32.6 695.5 32.7 694.8 33.4 694.4 34.2 694.5 35.2 695.4 35.6L702.1 40.7 701.3 49.4 687.3 38.7C686.5 38.4 685.5 38.4 685 39 684.4 40 684.5 41 685.3 41.3L700.8 53.1 699.2 66.3 688.1 55.8 688.1 71.1 677.3 63.2 679.4 43.8C679.7 43.7 679.6 43.4 679.5 43.1 679.2 42.5 678.7 42.1 677.9 42 677.2 42 676.5 42.7 676.1 43.5L674.3 61 667.4 55.6 668.3 47.2C668.5 46.8 668.4 46.5 668.3 46.2 668.1 45.9 667.6 45.5 666.9 45.4 666.1 45.4 665.4 46.1 665.4 46.8L664.4 53.4 655.3 46.9C654.6 46.2 653.8 46.5 653 47.2 652.5 47.8 652.6 48.8 653.6 49.4L662.4 56.1 656.2 58.7C655.3 59.1 655.1 60.2 655.4 60.8 655.8 61.7 656.6 62 657.5 61.7L665.4 58.2 672.3 63.6 656.4 70.5C655.5 70.9 655.2 71.7 655.6 72.6 655.8 73.2 656.8 73.8 657.7 73.4L675.3 65.8 686 73.7 671.6 78.2 684.6 85.8 672.3 91.2 656.9 79.7C655.9 79.1 655 79.4 654.6 80 654.1 80.5 654.2 81.5 654.9 82.3L669.1 92.6 661.1 96 654.1 91C653.4 90.2 652.4 90.3 651.8 91.3 651.3 91.8 651.4 92.8 652.4 93.5L657.6 97.5 647.3 101.9C646.4 102.3 646.1 103.2 646.5 104S647.7 105.3 648.6 104.9L658.9 100.4 658.2 107C658 108.1 658.7 108.9 659.4 108.9 660.5 109.1 661.3 108.5 661.2 107.4L662.4 98.9 670.3 95.5 668.1 112.9C668.1 113.9 668.8 114.6 669.5 114.7 670.7 114.9 671.4 114.2 671.3 113.2L673.6 94.1 685.9 88.8 682.5 103.5 695.7 96.1 694.1 109.3 676.4 116.9C675.5 117.3 675.3 118.4 675.6 119 676 119.9 676.8 120.2 677.7 119.9L693.9 112.9 692.8 121.7 684.8 125.1C684 125.5 683.6 126.4 684 127.2 684.3 127.8 685.2 128.4 686.1 128.1L692.3 125.4 691.1 136.4C690.9 137.5 691.6 138.3 692.6 138.2 693.3 138.2 694.2 137.8 694.1 136.8L695.6 125.7 701.1 129.6C701.6 130.1 702.6 130 703.1 129.5 703.6 128.9 703.6 128.2 703.5 127.9 703.3 127.6 703.2 127.3 702.8 127.2L696.1 122 696.8 113.3 710.9 124C711.7 124.4 712.7 124.3 713.2 123.7 713.6 123.2 713.7 122.5 713.4 121.9 713.3 121.6 713.3 121.6 712.9 121.4L697.3 109.6 698.9 96.4 710.1 106.9 710.1 91.6 720.8 99.5 718.7 118.9C718.7 119.6 719.1 120.5 720.2 120.7 720.9 120.7 721.7 120.1 722 119.2L723.9 101.7 730.7 107.1 729.8 115.5C729.5 116.3 730.2 117.1 731.3 117.3 732 117.3 732.8 116.7 733.1 115.8L733.8 109.3 742.9 115.8C743.5 116.6 744.4 116.2 745.2 115.5 745.3 115.1 745.4 114.4 745.2 114.1 745.1 113.8 745 113.5 744.6 113.3L735.8 106.7 741.9 104C742.8 103.6 743 102.5 742.8 101.9L742.8 101.9C742.4 101 741.6 100.7 740.7 101.1L732.7 104.5 725.9 99.1 741.8 92.2C742.6 91.9 743 91 742.6 90.1S741.4 88.9 740.5 89.3L722.9 96.9 712.1 89 726.6 84.5 713.5 76.9 725.9 71.6 741.3 83C742.2 83.7 743.1 83.3 743.6 82.7 744 82.2 744 81.2 743.3 80.4L729.4 70 737 66.7 744.1 71.7C744.7 72.5 745.7 72.4 746.4 71.4 746.8 70.9 746.7 69.9 746.1 69.1L740.6 65.2 750.8 60.8C751.7 60.4 752.1 59.6 751.7 58.7S750.5 57.5 749.6 57.8L739.3 62.3 740 55.7C740.1 55.3 740 55 739.9 54.7 739.6 54.1 739.2 54 738.8 53.8 737.6 53.6 736.9 54.3 737 55.3L735.8 63.8 727.8 67.2 730.1 49.9C730 49.6 729.9 49.3 729.7 49 729.5 48.4 729.1 48.2 728.6 48.1 727.5 47.9 726.7 48.5 726.8 49.5L724.6 68.6 712.3 73.9 715.7 59.2 702.5 66.6 704.1 53.4 721.7 45.8C722.6 45.4 722.8 44.3 722.6 43.7 722.2 42.8 721.4 42.5 720.5 42.9L704.6 49.7 705.4 41 713.3 37.6C714.2 37.2 714.5 36.4 714.2 35.5S712.9 34.3 712.1 34.6L705.9 37.3 707.1 26.3C707.2 25.9 707.1 25.6 707 25.3 706.9 25 706.3 24.6 705.6 24.5 704.9 24.5 704 24.9 704.1 25.9ZM711 65.4L708.2 77.4 718.9 83.6 706.9 87.4 706.9 99.6 697.8 91.3 687.1 97.3 690 85.3 679.3 79.1 691 75.5 691.2 63.1 700.1 71.5 711 65.4Z" fill="rgba(21, 69, 29, 0.58)"></path><path d="M830 186.2L830.7 198.8 823 195.2C822.3 194.8 821 195.1 820.3 196.1 820 197.2 820.4 198.5 821.2 198.9L831.2 203.8 831.8 215.4 811.5 205.4C810.2 204.8 809 205.2 808.8 206.3 808 207.3 808.3 208.5 809.7 209L832 220.1 832.8 230.6 812.5 244.2 804.1 240.2 802.7 213.7C802.5 213.4 802.2 213.1 802 212.7 801.8 212.4 801 211.9 800.5 211.8 799 211.8 798.2 212.8 798.6 214.1L799.9 238.2 789.6 233.1 788.6 220.7C788.9 220.5 788.7 220.2 788.5 219.9 788.1 219.2 787.3 218.8 786.4 218.9 785.5 219 784.7 220 784.5 221.1L785.4 231.1 772.5 224.8C771.8 224.3 770.5 224.7 769.8 225.7 769.5 226.8 769.9 228 770.7 228.5L782.8 234.3 775.8 239C774.8 239.6 774.8 241.1 775.2 241.8 775.9 242.8 777.3 243.3 778.2 242.6L787.2 236.6 797.4 241.8 778.8 254.3C777.8 254.9 777.6 256.1 778.3 257.1 779 258.1 780.1 258.3 781.1 257.6L801.7 243.8 810.7 247.9 812.2 272.4 804.5 277.5 781.6 266.4C780.6 265.6 779.1 266.1 778.9 267.3 778.1 268.3 778.8 269.3 779.8 270L800.5 280.2 790.9 286.6 780.7 281.5C779.9 281 778.4 281.6 777.9 282.3S778 284.7 779 285.5L786.9 289.3 775.3 297.1C774.3 297.8 774.3 299.2 775 300.2 775.4 300.9 776.8 301.4 777.8 300.8L789.4 293 790.2 302.1C790.3 302.9 791 303.9 792.4 303.9 793.3 303.8 794.4 302.6 794.3 301.7L793.4 290.3 803 283.8 804.5 306.9C804.8 308.1 805.5 309.1 807 309.1 807.8 309 808.9 307.8 808.8 306.9L807 281.2 814.6 276 836.7 286.7 837.1 296.6 816.5 310.4C815.5 311.1 815.3 312.2 816 313.2 816.6 314.2 818 314.7 819 314.1L837.6 301.6 838.5 313 829.5 319C828.5 319.7 828.3 320.8 829 321.8 829.6 322.8 830.7 323 831.7 322.4L838.7 317.7 839.5 331.1C839.6 332 840.9 333.1 841.8 333 843 332.6 844 332 843.6 330.7L842.9 316.8 851.6 321.1C852.7 321.3 853.9 321 854.4 320.2 854.8 319.4 854.7 318.5 854.2 317.8 854.2 317.8 854 317.5 853.5 317.4L842.5 311.8 841.5 300.4 863.4 310.7C864.4 311.5 865.6 311.2 866.2 309.8 866.3 309.3 866.4 308.7 866 308 865.8 307.7 865.5 307.4 865.3 307.1L841.3 295.7 840.8 286.4 861.1 272.8 870.5 277.5 872.3 302.4C872.3 303.8 873.3 304.6 874.5 304.3 875.6 304.5 876.4 303.5 876.4 302L874.8 279.5 885.3 284.5 886 295.6C886.1 296.5 887.1 297.2 888.2 297.4 889.5 297.1 890.5 296.4 890.1 295.2L889.8 286.8 901.1 292.2C902.1 293 903.1 292.3 903.9 291.3 904 290.7 903.9 289.9 903.4 289.2 903.4 289.2 903.2 288.9 903 288.5L890.9 282.7 899.2 277.1C899.8 276.7 900.4 275.3 899.7 274.3 899 273.3 897.6 273.3 896.9 273.8L886.6 280.7 876.1 275.7 896.3 262.1C897.3 261.5 897.3 260 896.7 259S894.9 257.8 893.9 258.5L871.6 273.4 863 269.1 861.5 244.6 870.1 238.8 893.2 250.3C894.3 250.5 895.5 250.2 896.3 249.2 896.4 248.6 896.3 247.7 895.9 247.1 895.6 246.7 895.4 246.4 894.9 246.3L874.1 236.1 883.7 229.7 894.3 234.6C895 235.1 896.3 234.7 897 233.7 897.3 232.6 896.9 231.4 896.1 231L887.7 227 898.3 219.9C899 219.4 899.3 217.8 898.9 217.1 898.2 216.1 896.5 215.8 895.9 216.2L885.2 223.3 885 214.4C884.8 214 884.6 213.7 884.3 213.4 883.9 212.7 883.1 212.3 882.6 212.1 881.3 212.5 880.6 213.5 880.3 214.6L881.3 226 871.6 232.5 870.1 209.4C870.1 208 869.1 207.2 868.2 207.3 866.8 207.3 866 208.3 865.8 209.4L867.6 235.2 859 241 836.9 230.3 836.2 220.6 858.5 205.7C859.5 205 859.7 203.9 859 202.9 858.3 201.9 857.2 201.7 856.2 202.4L836 215.9 835.4 204.3 845.7 197.4C846.3 196.9 846.7 195.3 846 194.3 845.3 193.3 843.9 193.3 843.2 193.7L834.9 199.3 834.1 185.9C833.9 185.6 833.9 185.6 833.7 185.2 833.2 184.6 832.4 184.1 831.9 184 830.7 184.3 829.9 185.3 830 186.2ZM855 243.6L857.4 244.9 857.5 247.3 858.8 267.1 858.9 269.5 856.9 270.8 840.6 281.7 838.6 283.1 836.5 282.1 818.6 273.4 816.5 272.4 816.2 269.7 815.1 250.2 814.8 247.5 816.8 246.2 833 235.3 835 233.9 837.4 235.2 855 243.6Z" fill="rgba(21, 69, 29, 0.58)"></path><path d="M412.9 403.9L463.2 386.9 505.5 408.2 465.9 434.2 414 423C414 423 413.4 423.1 413.4 423.1 412.1 423.1 410.9 424.5 410.3 425.8 409.8 427.8 411.2 429.6 413.1 429.5L458.5 439.1 439.4 451.7 419.3 447.7C419.3 447.7 418.6 447.8 418.6 447.8 417.4 447.8 416.2 449.2 415.6 450.5 415.1 452.5 416.5 454.3 418.4 454.2L432 457.3 417.8 466.4C416.6 467.1 416.1 469.7 416.8 471 417.5 472.8 420.1 472.7 421.3 472L435.5 462.8 432.5 476.5C431.9 478.4 433.3 480.3 435.2 480.2 437.2 480.7 439 479.3 438.9 477.4L442.9 457.3 462.1 445.3 452.5 490.7C452 492.7 453.4 494.5 455.3 494.4 457.2 494.9 459.1 493.5 459 491.6L470.1 439.7 509.6 413.7 512.4 461.6 476.9 501.5C475.7 502.8 475.8 504.8 477.1 506 478.5 507.2 480.4 507.1 481.6 505.7L512.9 470.6 514.2 493.6 501 508.4C499.8 509.8 499.9 511.7 501.2 512.9 502.6 514.1 504.5 514 505.7 512.7L514.7 502.5 515.8 520.4C515.2 522.4 517.2 523.5 519.1 523.4 521.1 523.3 522.3 522 522.2 520L521.2 503.4 531.3 512.5C532.7 513.7 534.6 513.6 535.8 512.2S536.9 508.9 535.6 507.7L520.7 494.5 519.4 471.5 554.5 502.8C555.8 504 557.8 503.9 559 502.6 560.2 501.2 560.1 499.3 558.7 498.1L518.9 462.5 516.1 415.3 558.4 436.6 574.7 485.6C575.4 487.5 577.4 488 579.3 487.9 581.2 487.2 581.7 485.2 581.6 483.3L566.9 439.3 587.4 449.6 593.6 469.2C594.3 471 596.3 471.6 598.2 471.5 600.1 470.7 600.6 468.8 600.6 467.5L596 454.3 611.1 461.7C612.4 462.3 615 462.2 615.5 460.2 616.1 458.3 615.9 456.3 614 455.8L598.8 448.3 612 443.7C613.9 443 614.4 441 614.3 439.8 613.6 438.5 612.3 437.3 611 437.4 611 437.4 610.4 437.4 610.4 437.4L590.9 443.7 570.4 433.3 614.4 418.6C616.3 417.9 616.8 415.9 616.8 414.6 616 413.4 614.7 412.2 613.4 412.2 613.4 412.2 612.8 412.3 612.8 412.3L562.5 429.3 520.2 408 559.8 382 611.7 393.1C613.6 393.6 615.5 392.3 615.4 390.3 615.9 388.4 614.5 386.5 612.6 386.7L567.2 377.1 586.3 364.4 606.4 368.4C608.4 368.9 610.2 367.6 610.1 365.6 610.6 363.7 609.2 361.8 607.3 362L593.7 358.9 607.9 349.7C609.1 349 609.6 346.4 608.9 345.2 608.2 344 606.9 343.4 605.6 343.5 605 343.5 604.3 343.5 603.7 344.2L589.5 353.4 592.6 339.7C593.1 337.8 591.7 335.9 589.8 336 589.8 336 589.2 336.1 589.2 336.1 587.9 336.1 586.7 337.5 586.1 338.8L582.2 358.9 563 371.5 572.6 326.1C573.1 324.2 571.7 322.3 569.8 322.4 569.8 322.4 569.2 322.5 569.2 322.5 567.9 322.5 566.7 323.9 566.1 325.2L555 377.1 515.5 403.1 512.7 355.8 548.3 316C549.5 314.6 549.4 312.7 548 311.5 546.7 310.3 544.8 310.4 543.6 311.8L512.2 346.3 510.9 323.2 524.1 308.4C525.3 307 525.2 305.1 523.9 303.9S520.6 302.8 519.4 304.2L510.4 314.3 509.4 297.7C509.3 295.8 507.9 294.6 506 294.7 504.1 294.8 502.9 296.1 503 298.1L504 314.7 493.8 305.6C493.2 305 492.5 304.4 491.2 304.5S489.3 305.3 488.7 305.9C487.5 307.3 487.6 309.2 489 310.4L503.8 323.7 505.2 346.7 470 315.3C469.4 314.7 468.7 314.1 467.4 314.2 466.8 314.2 465.5 314.9 464.9 315.6 463.7 317 463.8 318.9 465.2 320.1L505 355.6 507.7 402.9 465.5 381.6 448.5 331.3C447.8 330.1 446.4 328.9 445.2 328.9 445.2 328.9 444.5 329 444.5 329 442.7 329.7 442.1 331.7 442.2 333L456.9 377 436.4 366.6 430.2 347.1C429.5 345.9 428.1 344.7 426.8 344.7 426.8 344.7 426.2 344.8 426.2 344.8 424.3 345.5 423.8 347.5 423.9 348.7L428.5 361.9 413.3 354.5C412.7 354.5 412 353.9 411.3 354 410.1 354 408.8 354.7 408.3 356.1 407.7 358 407.8 359.9 409.8 360.5L425 367.9 411.8 372.5C409.9 373.3 409.4 375.2 409.4 376.5 410.2 378.4 412.1 378.9 413.4 378.8L432.9 372.6 453.4 383 409.4 397.7C407.5 398.4 407 400.4 407 401.6 409.1 403.4 411 404.6 412.9 403.9Z" fill="rgba(21, 69, 29, 0.58)"></path><path d="M940.9 473.5L974 471.8 995.9 491.7 967.7 500.7 938.3 485.2C938.3 485.2 937.9 485.1 937.9 485.1 937.1 484.9 936.2 485.5 935.6 486.2 935 487.3 935.5 488.6 936.7 488.9L962.4 502.4 948.7 506.7 937.3 500.9C937.3 500.9 936.9 500.8 936.9 500.8 936.1 500.7 935.2 501.3 934.6 502 934 503.1 934.5 504.4 935.7 504.7L943.3 508.8 933.2 511.9C932.4 512.1 931.6 513.6 931.8 514.5 932 515.7 933.5 516.1 934.4 515.8L944.5 512.8 940.4 520.4C939.7 521.5 940.2 522.9 941.4 523.1 942.5 523.8 943.8 523.3 944.1 522.1L949.9 510.7 963.5 506.7 950 532.4C949.4 533.5 949.9 534.8 951.1 535.1 952.1 535.7 953.5 535.2 953.7 534L969.2 504.7 997.4 495.8 991 525.1 962.8 543C961.9 543.6 961.6 544.8 962.2 545.7 962.8 546.7 964 547 965 546.4L989.7 530.5 986.6 544.6 976.2 551.3C975.2 551.9 974.9 553.1 975.6 554 976.2 555 977.3 555.2 978.3 554.6L985.4 550.1 983 561C982.4 562.1 983.4 563.1 984.5 563.4 985.7 563.6 986.7 563 986.9 561.9L989.2 551.7 993.7 558.8C994.3 559.8 995.5 560.1 996.5 559.5S997.7 557.7 997.1 556.7L990.4 546.2 993.5 532.2 1009.3 557C1009.9 557.9 1011.1 558.2 1012 557.6 1013 557 1013.3 555.8 1012.6 554.8L994.7 526.7 1001.1 497.8 1022.9 517.8 1024.4 550C1024.5 551.3 1025.6 552 1026.7 552.2 1028 552.1 1028.7 551 1028.9 549.8L1027.5 520.8 1038.1 530.5 1038.5 543.3C1038.7 544.6 1039.7 545.2 1040.9 545.5 1042.2 545.4 1042.8 544.3 1043 543.5L1042.5 534.8 1050.3 541.9C1051 542.4 1052.6 542.8 1053.2 541.7 1053.9 540.6 1054.1 539.4 1053.1 538.8L1045.2 531.7 1053.9 531.2C1055.2 531 1055.8 530 1056 529.2 1055.8 528.3 1055.2 527.4 1054.4 527.2 1054.4 527.2 1054 527.1 1054 527.1L1041.2 527.5 1030.6 517.8 1059.6 516.5C1060.9 516.3 1061.5 515.2 1061.7 514.5 1061.5 513.6 1060.9 512.6 1060.1 512.5 1060.1 512.5 1059.7 512.4 1059.7 512.4L1026.6 514.1 1004.8 494.1 1032.9 485.2 1062.3 500.7C1063.4 501.3 1064.7 500.8 1065 499.6 1065.6 498.5 1065.1 497.2 1063.9 496.9L1038.2 483.5 1051.9 479.1 1063.3 484.9C1064.4 485.6 1065.7 485 1066 483.9 1066.6 482.8 1066.1 481.4 1065 481.2L1057.3 477 1067.4 473.9C1068.2 473.7 1069 472.2 1068.8 471.4 1068.5 470.5 1067.8 469.9 1067.1 469.8 1066.7 469.7 1066.3 469.6 1065.8 469.9L1055.7 473 1059.9 465.3C1060.5 464.2 1060 462.9 1058.8 462.6 1058.8 462.6 1058.4 462.5 1058.4 462.5 1057.6 462.4 1056.7 463 1056.1 463.7L1050.3 475.1 1036.7 479.4 1050.1 453.7C1050.8 452.6 1050.2 451.3 1049.1 451 1049.1 451 1048.7 451 1048.7 451 1047.9 450.8 1047 451.4 1046.4 452.1L1030.9 481.4 1002.7 490.4 1009.1 461.5 1037.2 443.5C1038.2 442.9 1038.4 441.7 1037.8 440.8 1037.2 439.8 1036 439.6 1035.1 440.2L1010.4 455.6 1013.5 441.5 1024 434.9C1024.9 434.2 1025.2 433.1 1024.6 432.1S1022.8 430.9 1021.8 431.5L1014.7 436.1 1016.9 425.9C1017.2 424.8 1016.6 423.8 1015.4 423.5 1014.2 423.3 1013.3 423.9 1013 425.1L1010.8 435.2 1006.2 428.1C1005.9 427.6 1005.6 427.1 1004.8 426.9S1003.6 427.1 1003.1 427.4C1002.1 428 1001.9 429.2 1002.5 430.1L1009.2 440.6 1006.1 454.7 990.3 429.9C990 429.4 989.7 428.9 988.9 428.7 988.5 428.7 987.6 428.9 987.1 429.2 986.2 429.8 985.9 431 986.5 431.9L1004.5 460 998.1 488.9 976.3 469 974.6 435.8C974.4 435 973.8 434 973 433.8 973 433.8 972.6 433.8 972.6 433.8 971.4 433.9 970.7 435 970.5 435.8L971.9 464.7 961.4 455 960.9 442.2C960.7 441.4 960.1 440.4 959.3 440.2 959.3 440.2 958.9 440.1 958.9 440.1 957.6 440.3 957 441.4 956.8 442.1L957.4 450.9 949.5 443.8C949.1 443.7 948.8 443.2 948.4 443.2 947.6 443 946.8 443.2 946.2 443.9 945.6 445 945.3 446.2 946.4 446.8L954.2 453.9 945.5 454.4C944.3 454.5 943.6 455.6 943.4 456.4 943.6 457.7 944.7 458.3 945.4 458.5L958.2 458 968.8 467.7 939.8 469.1C938.6 469.2 937.9 470.3 937.7 471.1 938.6 472.5 939.6 473.6 940.9 473.5Z" fill="rgba(21, 69, 29, 0.58)"></path><path d="M118.5 456.1L131.1 456.4 126.9 463.8C126.4 464.5 126.7 465.8 127.6 466.6 128.7 466.9 129.9 466.7 130.4 465.9L136.1 456.3 147.7 456.7 136.1 476C135.5 477.3 135.7 478.6 136.8 478.9 137.8 479.7 139 479.5 139.7 478.2L152.4 456.8 163 456.8 174.9 478.1 170.3 486.2 143.8 485.5C143.4 485.7 143.1 485.9 142.7 486.1 142.4 486.3 141.9 487 141.7 487.6 141.6 489 142.6 489.9 143.8 489.6L168 490.2 162 500 149.7 500.1C149.5 499.7 149.1 499.9 148.8 500.1 148.1 500.5 147.6 501.3 147.6 502.2 147.7 503 148.6 503.9 149.7 504.2L159.7 504.1 152.5 516.4C152 517.2 152.2 518.4 153.1 519.3 154.2 519.6 155.5 519.3 156 518.6L162.7 507 166.9 514.3C167.5 515.3 168.9 515.4 169.6 515 170.6 514.5 171.3 513.2 170.7 512.1L165.4 502.7 171.4 492.9 182.4 512.4C182.9 513.5 184 513.8 185.1 513.2 186.1 512.6 186.4 511.5 185.8 510.5L173.7 488.9 178.4 480.2 203 480.6 207.5 488.6 194.6 510.6C193.8 511.5 194.2 513.1 195.3 513.4 196.2 514.3 197.3 513.7 198.1 512.7L209.9 492.8 215.6 502.9 209.6 512.7C209.1 513.5 209.5 515 210.3 515.5S212.6 515.6 213.5 514.7L217.9 507.1 224.8 519.3C225.4 520.3 226.8 520.5 227.9 519.9 228.6 519.5 229.2 518.2 228.6 517.1L221.7 504.9 230.9 504.9C231.8 504.8 232.8 504.2 232.9 502.8 232.9 501.9 231.7 500.7 230.9 500.7L219.4 500.8 213.7 490.7 236.8 490.9C238.1 490.7 239.1 490.1 239.2 488.7 239.2 487.8 238 486.6 237.1 486.6L211.3 486.5 206.8 478.5 219.2 457.3 229.1 457.7 241.3 479.3C241.8 480.3 242.9 480.6 244 480 245 479.4 245.7 478.2 245.1 477.1L234.1 457.6 245.6 457.6 250.9 467C251.4 468 252.5 468.3 253.6 467.7 254.6 467.1 254.9 466.1 254.3 465L250.2 457.7 263.7 457.9C264.6 457.9 265.8 456.7 265.7 455.9 265.5 454.6 264.9 453.6 263.6 453.8L249.7 453.4 254.6 445.1C254.9 444 254.7 442.8 253.9 442.3 253.2 441.8 252.3 441.8 251.6 442.2 251.6 442.2 251.3 442.4 251.1 443L244.6 453.5 233.2 453.5 245.2 432.5C246.1 431.6 245.8 430.3 244.5 429.7 244 429.5 243.5 429.4 242.8 429.8 242.4 430 242.1 430.2 241.7 430.3L228.5 453.4 219.2 453.1 207.2 431.9 212.7 422.8 237.6 423C239 423.1 239.9 422.2 239.6 421 239.9 419.9 239 419 237.6 418.9L215 418.8 220.8 408.6 231.9 408.8C232.8 408.8 233.6 407.8 233.9 406.7 233.7 405.5 233.1 404.4 231.8 404.7L223.4 404.4 229.7 393.5C230.5 392.6 229.9 391.5 229 390.7 228.5 390.5 227.6 390.6 226.9 391 226.9 391 226.5 391.2 226.2 391.4L219.4 403 214.5 394.3C214.1 393.6 212.8 392.9 211.8 393.5 210.7 394.1 210.6 395.5 211 396.2L217.1 407 211.3 417.2 199.4 395.9C198.8 394.9 197.3 394.7 196.3 395.3S194.9 397 195.5 398.1L208.7 421.4 203.7 429.7 179.2 429.3 174 420.3 187.3 398.1C187.6 397 187.3 395.8 186.4 394.9 185.9 394.8 185 394.8 184.3 395.2 183.9 395.4 183.6 395.6 183.4 396.2L171.7 416.1 166 406 171.8 395.8C172.3 395.1 172 393.8 171.1 393 170 392.7 168.8 392.9 168.3 393.7L163.6 401.8 157.4 390.6C157 389.9 155.3 389.5 154.6 389.9 153.6 390.5 153.1 392.1 153.5 392.8L159.8 403.9 150.8 403.5C150.5 403.7 150.1 403.9 149.8 404.1 149.1 404.5 148.6 405.2 148.4 405.8 148.7 407 149.6 407.8 150.7 408.2L162.2 408.1 167.9 418.2 144.7 417.9C143.3 417.8 142.5 418.8 142.5 419.7 142.4 421.1 143.3 422 144.4 422.3L170.2 422.4 175.3 431.5 162.9 452.7 153.3 452.6 140.1 429.3C139.5 428.2 138.4 427.9 137.4 428.5 136.3 429.1 136 430.2 136.6 431.2L148.6 452.5 136.9 452.2 130.8 441.4C130.5 440.7 128.8 440.2 127.8 440.8 126.7 441.4 126.6 442.8 127 443.5L131.9 452.2 118.5 452C118.1 452.2 118.1 452.2 117.8 452.4 117.1 452.8 116.6 453.5 116.4 454.1 116.7 455.3 117.6 456.2 118.5 456.1ZM177.7 435.7L179.2 433.4 181.5 433.5 201.4 433.8 203.7 433.8 204.9 435.9 214.5 453 215.7 455.1 214.6 457.1 204.5 474.3 203.3 476.3 200.6 476.4 181.1 476 178.4 476.1 177.2 474 167.6 456.9 166.4 454.8 167.9 452.6 177.7 435.7Z" fill="rgba(21, 69, 29, 0.58)"></path><path d="M1345.3 144.4L1345.2 133.2 1351.2 136.2C1351.8 136.6 1352.8 136.4 1353.4 135.6 1353.6 134.7 1353.4 133.7 1352.5 133.5L1345.1 129.4 1344.7 120.7 1360 129.3C1360.9 129.5 1361.9 129.3 1362.3 128.7 1362.8 127.6 1362.5 126.6 1361.7 126.4L1344.6 117 1344.3 103.6 1356.9 112.5 1354.7 97.3 1366.4 103.6 1367.1 123.1C1366.8 123.2 1367 123.5 1367.2 123.8 1367.5 124.3 1368.1 124.7 1368.8 124.7 1369.6 124.6 1370.2 123.8 1370.4 122.9L1369.8 105.3 1377.3 109.7 1377.6 118.1C1377.5 118.6 1377.7 118.9 1377.8 119.1 1378 119.4 1378.6 119.8 1379.3 119.7 1380 119.7 1380.7 118.9 1380.6 118.2L1380.6 111.4 1390.5 116.6C1391.3 117.2 1392.1 116.7 1392.8 116 1393.2 115.4 1392.9 114.4 1391.9 113.9L1382.2 108.6 1388 105C1388.8 104.5 1388.8 103.4 1388.5 102.8 1388 102 1387.1 101.8 1386.3 102.3L1378.9 106.8 1371.4 102.5 1386.1 93.4C1386.9 92.9 1387.1 92 1386.6 91.2 1386.3 90.7 1385.2 90.2 1384.4 90.7L1368.1 100.7 1356.3 94.4 1370 87.9 1356 82.2 1367.4 75.2 1384.3 84.4C1385.4 84.9 1386.2 84.4 1386.6 83.8 1386.9 83.2 1386.7 82.2 1385.9 81.5L1370.4 73.4 1377.8 68.9 1385.5 72.8C1386.2 73.4 1387.2 73.2 1387.7 72.2 1388.1 71.6 1387.9 70.6 1386.8 70.1L1381.1 66.9 1390.6 61C1391.4 60.5 1391.7 59.6 1391.2 58.8S1389.8 57.8 1389 58.3L1379.4 64.1 1379.1 57.5C1379.2 56.4 1378.4 55.7 1377.7 55.8 1376.5 55.8 1375.9 56.5 1376.1 57.5L1376.1 66.1 1368.8 70.6 1368.5 53.1C1368.3 52.2 1367.5 51.5 1366.8 51.6 1365.7 51.5 1365 52.3 1365.2 53.3L1365.8 72.5 1354.3 79.5 1355.6 64.5 1343.6 73.7 1343.3 60.4 1359.7 50.3C1360.5 49.8 1360.5 48.7 1360.2 48.1 1359.7 47.3 1358.8 47.1 1358 47.6L1343 56.8 1342.8 47.9 1350.2 43.4C1351 42.9 1351.2 42 1350.7 41.2 1350.4 40.6 1349.3 40.2 1348.5 40.7L1342.8 44.2 1342.4 33.1C1342.4 32 1341.7 31.3 1340.7 31.6 1340 31.6 1339.1 32.1 1339.4 33.1L1339.5 44.3 1333.5 41.2C1332.9 40.9 1331.9 41.1 1331.5 41.7 1331.1 42.3 1331.2 43 1331.3 43.3 1331.5 43.6 1331.7 43.8 1332.1 43.9L1339.5 48 1340 56.8 1324.6 48.2C1323.7 48 1322.7 48.2 1322.3 48.8 1322 49.4 1322 50.1 1322.4 50.7 1322.5 50.9 1322.5 50.9 1323 51.1L1340 60.5 1340.3 73.8 1327.8 65 1329.9 80.2 1318.2 73.9 1317.5 54.4C1317.5 53.7 1316.9 52.9 1315.8 52.8 1315.1 52.9 1314.4 53.7 1314.2 54.5L1314.9 72.2 1307.3 67.8 1307 59.3C1307.2 58.4 1306.5 57.8 1305.3 57.8 1304.6 57.8 1303.9 58.6 1303.7 59.5L1304 66.1 1294.1 60.9C1293.3 60.2 1292.5 60.7 1291.8 61.5 1291.7 61.9 1291.8 62.7 1292 62.9 1292.1 63.2 1292.3 63.5 1292.7 63.6L1302.4 68.9 1296.7 72.4C1295.8 72.9 1295.8 74.1 1296.1 74.6L1296.1 74.6C1296.6 75.5 1297.5 75.7 1298.3 75.2L1305.7 70.6 1313.3 75 1298.5 84.1C1297.7 84.6 1297.5 85.4 1298 86.3S1299.4 87.3 1300.2 86.8L1316.6 76.7 1328.3 83.1 1314.7 89.6 1328.7 95.2 1317.2 102.3 1300.3 93.1C1299.3 92.6 1298.5 93.1 1298.1 93.7 1297.7 94.3 1297.9 95.3 1298.7 96L1313.9 104.3 1306.8 108.6 1299.2 104.7C1298.4 104 1297.4 104.3 1296.9 105.3 1296.5 105.9 1296.8 106.9 1297.5 107.6L1303.6 110.6 1294 116.5C1293.2 117 1293 117.9 1293.5 118.7S1294.9 119.7 1295.7 119.2L1305.2 113.4 1305.5 119.9C1305.4 120.4 1305.6 120.6 1305.7 120.9 1306.1 121.5 1306.5 121.6 1307 121.7 1308.1 121.7 1308.8 120.9 1308.5 120L1308.5 111.3 1315.9 106.8 1316.1 124.3C1316.3 124.6 1316.4 124.9 1316.6 125.2 1316.9 125.7 1317.4 125.8 1317.8 125.9 1319 126 1319.6 125.2 1319.4 124.2L1318.9 105 1330.3 98 1329 113 1341 103.8 1341.3 117.1 1325 127.2C1324.1 127.7 1324.1 128.8 1324.4 129.4 1324.9 130.2 1325.8 130.4 1326.6 129.9L1341.4 120.9 1341.8 129.6 1334.5 134.1C1333.6 134.6 1333.4 135.5 1333.9 136.3S1335.3 137.3 1336.1 136.8L1341.9 133.3 1342.2 144.3C1342.1 144.8 1342.3 145 1342.5 145.3 1342.6 145.6 1343.2 146 1344 145.9 1344.7 145.8 1345.5 145.3 1345.3 144.4ZM1332.8 106.2L1333.9 93.9 1322.4 89.3 1333.7 83.9 1331.9 71.8 1342.2 78.7 1351.9 71.3 1350.8 83.6 1362.2 88.2 1351.2 93.4 1352.7 105.7 1342.7 98.6 1332.8 106.2Z" fill="rgba(21, 69, 29, 0.58)"></path><path d="M1447.5 480.4L1421.1 477.6 1406.3 459.1 1429.7 455.5 1451 471.4C1451 471.4 1451.3 471.5 1451.3 471.5 1451.9 471.8 1452.7 471.4 1453.2 470.9 1453.9 470.1 1453.6 469 1452.8 468.7L1434.1 454.8 1445.4 453.1 1453.8 459.1C1453.8 459.1 1454 459.2 1454 459.2 1454.6 459.4 1455.5 459.1 1456 458.6 1456.7 457.8 1456.4 456.7 1455.5 456.3L1450 452.1 1458.3 450.9C1459 450.9 1459.8 449.8 1459.7 449.1 1459.8 448.1 1458.6 447.6 1457.9 447.7L1449.5 448.8 1453.8 443.3C1454.4 442.5 1454.2 441.4 1453.3 441 1452.5 440.4 1451.4 440.6 1451 441.5L1445 449.8 1433.8 451.3 1447.6 432.6C1448.3 431.9 1448 430.7 1447.1 430.4 1446.3 429.7 1445.2 430 1444.9 430.9L1429 452.1 1405.6 455.7 1414.3 433.4 1438.8 422.7C1439.6 422.3 1440 421.4 1439.6 420.6 1439.3 419.7 1438.4 419.4 1437.5 419.8L1416 429.2 1420.2 418.5 1429.3 414.5C1430.1 414.1 1430.5 413.2 1430.1 412.4 1429.8 411.5 1428.9 411.2 1428 411.6L1421.8 414.3 1425.1 405.9C1425.7 405.2 1425.1 404.2 1424.2 403.9 1423.3 403.5 1422.4 403.9 1422.1 404.8L1419.1 412.5 1416.3 406.3C1416 405.5 1415.1 405.1 1414.3 405.5S1413.1 406.7 1413.4 407.6L1417.4 416.7 1413.2 427.4 1403.8 405.9C1403.4 405 1402.5 404.7 1401.7 405 1400.9 405.4 1400.5 406.3 1400.9 407.1L1411.6 431.6 1403 453.6 1388.2 435.1 1391.1 409.5C1391.1 408.4 1390.3 407.8 1389.4 407.4 1388.4 407.4 1387.8 408.2 1387.4 409.1L1384.9 432.1 1377.8 423.2 1379 413C1379.1 412 1378.3 411.3 1377.4 411 1376.4 410.9 1375.7 411.7 1375.5 412.3L1374.8 419.3 1369.5 412.7C1369 412.2 1367.8 411.7 1367.2 412.5 1366.5 413.3 1366.2 414.2 1367 414.8L1372.3 421.4 1365.3 420.7C1364.3 420.6 1363.7 421.4 1363.5 422 1363.5 422.7 1363.9 423.6 1364.5 423.8 1364.5 423.8 1364.8 423.9 1364.8 423.9L1374.9 425.1 1382.1 434.1 1359 431.6C1358 431.6 1357.3 432.3 1357.1 432.9 1357.2 433.7 1357.5 434.5 1358.1 434.7 1358.1 434.7 1358.4 434.8 1358.4 434.8L1384.8 437.6 1399.6 456.1 1376.2 459.7 1354.9 443.8C1354.2 443.1 1353 443.4 1352.7 444.3 1352 445 1352.3 446.2 1353.2 446.5L1371.8 460.3 1360.5 462.1 1352.2 456.1C1351.4 455.4 1350.3 455.7 1349.9 456.6 1349.3 457.4 1349.5 458.5 1350.4 458.8L1356 463.1 1347.6 464.3C1346.9 464.3 1346.1 465.4 1346.2 466.1 1346.3 466.8 1346.7 467.4 1347.3 467.6 1347.6 467.7 1347.9 467.8 1348.3 467.7L1356.7 466.5 1352.5 472C1351.8 472.8 1352.1 473.9 1353 474.3 1353 474.3 1353.3 474.4 1353.3 474.4 1353.9 474.6 1354.7 474.3 1355.2 473.8L1361.2 465.5 1372.6 463.7 1358.7 482.4C1358.1 483.1 1358.3 484.3 1359.2 484.6 1359.2 484.6 1359.5 484.7 1359.5 484.7 1360.1 485 1360.9 484.6 1361.5 484.1L1377.4 462.9 1400.7 459.3 1392.1 481.4 1367.7 492.1C1366.8 492.4 1366.5 493.3 1366.8 494.1 1367.2 495 1368.1 495.3 1368.9 495L1390.4 485.8 1386.2 496.5 1377 500.5C1376.2 500.9 1375.9 501.8 1376.2 502.6S1377.5 503.8 1378.3 503.4L1384.5 500.7 1381.5 508.5C1381.1 509.4 1381.5 510.2 1382.4 510.5 1383.3 510.9 1384.1 510.5 1384.5 509.6L1387.5 501.9 1390.2 508.1C1390.4 508.5 1390.6 508.9 1391.2 509.2S1392.2 509.2 1392.6 509C1393.4 508.7 1393.8 507.8 1393.4 507L1389.4 497.8 1393.6 487.1 1403.1 508.7C1403.3 509.1 1403.4 509.5 1404 509.7 1404.3 509.8 1405 509.8 1405.5 509.6 1406.3 509.2 1406.6 508.3 1406.3 507.5L1395.6 483.1 1404.2 461 1419 479.5 1416.2 505.9C1416.2 506.6 1416.6 507.4 1417.2 507.7 1417.2 507.7 1417.5 507.8 1417.5 507.8 1418.5 507.8 1419.2 507.1 1419.4 506.5L1421.9 483.4 1429 492.4 1427.8 502.5C1427.9 503.3 1428.2 504.1 1428.8 504.3 1428.8 504.3 1429.1 504.4 1429.1 504.4 1430.1 504.5 1430.8 503.7 1431 503.1L1431.7 496.2 1437 502.7C1437.3 502.8 1437.5 503.2 1437.8 503.4 1438.4 503.6 1439.1 503.5 1439.6 503 1440.3 502.3 1440.6 501.4 1439.9 500.7L1434.5 494.2 1441.5 494.8C1442.5 494.9 1443.1 494.1 1443.4 493.5 1443.4 492.5 1442.6 491.9 1442 491.6L1431.9 490.4 1424.7 481.4 1447.8 483.9C1448.8 484 1449.5 483.2 1449.7 482.6 1449.2 481.3 1448.5 480.4 1447.5 480.4Z" fill="rgba(21, 69, 29, 0.58)"></path></g><defs><mask id="SvgjsMask1018"><rect width="1440" height="560" fill="#ffffff"></rect></mask><filter id="SvgjsFilter1019"><feGaussianBlur stdDeviation="1"></feGaussianBlur></filter></defs></svg>