<svg enable-background="new 0 0 750 500" viewBox="0 0 750 500" xmlns="http://www.w3.org/2000/svg" xmlns:xlink="http://www.w3.org/1999/xlink"><clipPath id="a"><path d="m0 0h750v500h-750z"/></clipPath><clipPath id="b"><path d="m0 0h750v500h-750z"/></clipPath><g style="clip-path:url(#a);fill:none;stroke:#fff;stroke-width:1.1533;stroke-linecap:round;stroke-linejoin:round;stroke-miterlimit:10"><path d="m608.8 133.4 4.1 4.1"/><path d="m594.6 119.2 7.6 7.6"/><path d="m607.5 120.1 28.6 28.6"/><path d="m592.9 105.5 5.8 5.8"/><path d="m628 128.7 25.2 25.2"/><path d="m590 90.7 26.9 26.8"/><path d="m611.1 99.8 44.4 44.4"/><path d="m592.7 81.4 9.4 9.4"/><path d="m647.8 124.5 10.7 10.7"/><path d="m582.1 58.8 54.5 54.5"/><path d="m625.8 90.5 53.2 53.3"/><path d="m602.3 67 12.3 12.4"/><path d="m636.1 88.9 34.4 34.4"/><path d="m601 53.8 25.4 25.4"/><path d="m664.5 105.3 17.9 18"/><path d="m616.5 57.4 34.9 34.9"/><path d="m647.1 75.9 24.2 24.3"/><path d="m619.4 48.3 18.2 18.1"/><path d="m668.6 85.6 9.5 9.4"/><path d="m633.9 50.8 23.9 24"/><path d="m663.7 68.7 5.8 5.8"/><path d="m653.5 58.5 4 4"/></g><g style="clip-path:url(#a);fill:none;stroke:#fff;stroke-width:1.1533;stroke-linecap:round;stroke-linejoin:round;stroke-miterlimit:10"><path d="m314.8 542 4.1 4.2"/><path d="m300.6 527.8 7.6 7.6"/><path d="m313.5 528.7 28.6 28.7"/><path d="m298.9 514.2 5.8 5.8"/><path d="m334 537.4 25.2 25.1"/><path d="m296 499.4 26.9 26.8"/><path d="m317.1 508.4 44.4 44.5"/><path d="m298.7 490.1 9.4 9.4"/><path d="m353.8 533.2 10.7 10.7"/><path d="m288.1 467.5 54.5 54.4"/><path d="m331.8 499.2 53.2 53.2"/><path d="m308.3 475.7 12.3 12.4"/><path d="m342.1 497.6 34.4 34.4"/><path d="m307 462.5 25.4 25.4"/><path d="m370.5 514 17.9 17.9"/><path d="m322.5 466 34.9 34.9"/><path d="m353.1 484.6 24.2 24.3"/><path d="m325.4 457 18.2 18.1"/><path d="m374.6 494.2 9.5 9.5"/><path d="m339.9 459.5 23.9 23.9"/><path d="m369.7 477.4 5.8 5.8"/><path d="m359.5 467.2 4 4"/></g><g style="clip-path:url(#a);fill:none;stroke:#fff;stroke-width:1.1533;stroke-linecap:round;stroke-linejoin:round;stroke-miterlimit:10"><path d="m330.8 7.4 4.1 4.1"/><path d="m316.6-6.8 7.6 7.6"/><path d="m329.5-5.9 28.6 28.6"/><path d="m314.9-20.5 5.8 5.8"/><path d="m350 2.7 25.2 25.2"/><path d="m312-35.3 26.9 26.8"/><path d="m333.1-26.2 44.4 44.4"/><path d="m314.7-44.6 9.4 9.4"/><path d="m369.8-1.5 10.7 10.7"/><path d="m304.1-67.2 54.5 54.5"/><path d="m347.8-35.5 53.2 53.3"/><path d="m324.3-59 12.3 12.4"/><path d="m358.1-37.1 34.4 34.4"/><path d="m323-72.2 25.4 25.4"/><path d="m386.5-20.7 17.9 18"/><path d="m338.5-68.6 34.9 34.9"/><path d="m369.1-50.1 24.2 24.3"/><path d="m341.4-77.7 18.2 18.1"/><path d="m390.6-40.4 9.5 9.4"/><path d="m355.9-75.2 23.9 24"/><path d="m385.7-57.3 5.8 5.8"/><path d="m375.5-67.5 4 4"/></g><path clip-path="url(#a)" d="m243.1 113.7c5.8 5.8 5.8 15.2 0 20.9-5.8 5.8-15.2 5.8-20.9 0-5.8-5.8-5.8-15.2 0-20.9 5.8-5.8 15.2-5.8 20.9 0z" fill="none" stroke="#fff" stroke-miterlimit="10" stroke-width="2"/><path clip-path="url(#a)" d="m554.5 133.7c5.8 5.8 5.8 15.2 0 20.9-5.8 5.8-15.2 5.8-20.9 0-5.8-5.8-5.8-15.2 0-20.9 5.7-5.8 15.1-5.8 20.9 0z" fill="none" stroke="#fff" stroke-miterlimit="10" stroke-width="2"/><path clip-path="url(#a)" d="m195 456.5c3.9 3.9 3.9 10.2 0 14.1-3.9 3.9-10.2 3.9-14.1 0-3.9-3.9-3.9-10.2 0-14.1 3.9-3.9 10.2-3.9 14.1 0z" fill="none" stroke="#fff" stroke-miterlimit="10" stroke-width="2"/><g clip-path="url(#a)" fill="#fff"><circle cx="325.8" cy="379" r="2"/><circle cx="304" cy="357.3" r="2"/><circle cx="282.3" cy="335.5" r="2"/><circle cx="260.5" cy="313.8" r="2"/><circle cx="238.8" cy="292" r="2"/><circle cx="345.2" cy="359.6" r="2"/><circle cx="323.4" cy="337.8" r="2"/><circle cx="301.7" cy="316.1" r="2"/><circle cx="280" cy="294.3" r="2"/><circle cx="258.2" cy="272.6" r="2"/><circle cx="364.6" cy="340.1" r="2"/><circle cx="342.9" cy="318.4" r="2"/><circle cx="321.1" cy="296.7" r="2"/><circle cx="299.4" cy="274.9" r="2"/><circle cx="277.7" cy="253.2" r="2"/><circle cx="384" cy="320.7" r="2"/><circle cx="362.3" cy="299" r="2"/><circle cx="340.6" cy="277.2" r="2"/><circle cx="318.8" cy="255.5" r="2"/><circle cx="297.1" cy="233.8" r="2"/><circle cx="403.5" cy="301.3" r="2"/><circle cx="381.7" cy="279.5" r="2"/><circle cx="360" cy="257.8" r="2"/><circle cx="338.3" cy="236.1" r="2"/><circle cx="316.5" cy="214.3" r="2"/><circle cx="422.9" cy="281.9" r="2"/><circle cx="401.2" cy="260.1" r="2"/><circle cx="379.4" cy="238.4" r="2"/><circle cx="357.7" cy="216.6" r="2"/><circle cx="335.9" cy="194.9" r="2"/></g><g clip-path="url(#a)" fill="#fff"><circle cx="758.9" cy="315" r="2"/><circle cx="737.2" cy="293.3" r="2"/><circle cx="715.5" cy="271.5" r="2"/><circle cx="693.7" cy="249.8" r="2"/><circle cx="672" cy="228" r="2"/><circle cx="778.4" cy="295.6" r="2"/><circle cx="756.6" cy="273.8" r="2"/><circle cx="734.9" cy="252.1" r="2"/><circle cx="713.2" cy="230.3" r="2"/><circle cx="691.4" cy="208.6" r="2"/><circle cx="797.8" cy="276.1" r="2"/><circle cx="776.1" cy="254.4" r="2"/><circle cx="754.3" cy="232.7" r="2"/><circle cx="732.6" cy="210.9" r="2"/><circle cx="710.8" cy="189.2" r="2"/><circle cx="817.2" cy="256.7" r="2"/><circle cx="795.5" cy="235" r="2"/><circle cx="773.8" cy="213.2" r="2"/><circle cx="752" cy="191.5" r="2"/><circle cx="730.3" cy="169.7" r="2"/><circle cx="836.7" cy="237.3" r="2"/><circle cx="814.9" cy="215.5" r="2"/><circle cx="793.2" cy="193.8" r="2"/><circle cx="771.4" cy="172.1" r="2"/><circle cx="749.7" cy="150.3" r="2"/><circle cx="856.1" cy="217.9" r="2"/><circle cx="834.3" cy="196.1" r="2"/><circle cx="812.6" cy="174.4" r="2"/><circle cx="790.9" cy="152.6" r="2"/><circle cx="769.1" cy="130.9" r="2"/></g><g clip-path="url(#a)" fill="#fff"><circle cx="-16.7" cy="183.4" r="2"/><circle cx="-38.5" cy="161.6" r="2"/><circle cx="-60.2" cy="139.9" r="2"/><circle cx="-82" cy="118.2" r="2"/><circle cx="-103.7" cy="96.4" r="2"/><circle cx="2.7" cy="163.9" r="2"/><circle cx="-19.1" cy="142.2" r="2"/><circle cx="-40.8" cy="120.5" r="2"/><circle cx="-62.5" cy="98.7" r="2"/><circle cx="-84.3" cy="77" r="2"/><circle cx="22.1" cy="144.5" r="2"/><circle cx=".4" cy="122.8" r="2"/><circle cx="-21.4" cy="101" r="2"/><circle cx="-43.1" cy="79.3" r="2"/><circle cx="-64.9" cy="57.6" r="2"/><circle cx="41.5" cy="125.1" r="2"/><circle cx="19.8" cy="103.4" r="2"/><circle cx="-1.9" cy="81.6" r="2"/><circle cx="-23.7" cy="59.9" r="2"/><circle cx="-45.4" cy="38.1" r="2"/><circle cx="61" cy="105.7" r="2"/><circle cx="39.2" cy="83.9" r="2"/><circle cx="17.5" cy="62.2" r="2"/><circle cx="-4.3" cy="40.4" r="2"/><circle cx="-26" cy="18.7" r="2"/><circle cx="80.4" cy="86.2" r="2"/><circle cx="58.7" cy="64.5" r="2"/><circle cx="36.9" cy="42.8" r="2"/><circle cx="15.2" cy="21" r="2"/><circle cx="-6.6" cy="-.7" r="2"/></g><g clip-path="url(#b)"><path d="m575 46.9c10.4 10.3 10.4 27.1 0 37.4l-37.7-37.4c10.3-10.4 27.2-10.4 37.7 0z" fill="#ffaf00"/><path d="m554.5 101.6c-10.4-10.3-10.4-27.1 0-37.4l37.7 37.4c-10.3 10.4-27.2 10.4-37.7 0z" fill="none" stroke="#000" stroke-miterlimit="10" stroke-width="2.5152"/></g><g clip-path="url(#b)"><path d="m204.3 220.9c10.4 10.3 10.4 27.1 0 37.4l-37.7-37.4c10.4-10.4 27.3-10.4 37.7 0z" fill="#ffaf00"/><path d="m183.9 275.6c-10.4-10.3-10.4-27.1 0-37.4l37.7 37.4c-10.4 10.4-27.3 10.4-37.7 0z" fill="none" stroke="#000" stroke-miterlimit="10" stroke-width="2.5152"/></g><g clip-path="url(#b)"><path d="m623.5 332c16.5 16.5 16.5 43.2 0 59.7l-59.8-59.7c16.5-16.5 43.3-16.5 59.8 0z" fill="#ffaf00"/><path d="m621.7 343.8c16.5 16.5 16.5 43.2 0 59.7l-59.7-59.7c16.5-16.5 43.2-16.5 59.7 0z" style="fill:none;stroke:#010101;stroke-width:2;stroke-linecap:round;stroke-linejoin:round;stroke-miterlimit:10"/></g><g style="clip-path:url(#b);fill:none;stroke-width:1.6547;stroke-linecap:round;stroke-linejoin:round;stroke-miterlimit:10"><g stroke="#010101"><path d="m11.9 441.9 5.9 5.9"/><path d="m-8.5 421.6 10.9 10.9"/><path d="m10 422.9 41.1 41"/><path d="m-10.9 401.9 8.3 8.4"/></g><path d="m39.5 435.2 36.1 36.2" stroke="#ffaf00"/><path d="m-15 380.7 38.5 38.5" stroke="#ffaf00"/><path d="m15.2 393.7 63.8 63.8" stroke="#010101"/><path d="m-11.2 367.4 13.5 13.5" stroke="#010101"/><path d="m67.9 429.2 15.3 15.4" stroke="#010101"/><path d="m-26.4 334.9 78.1 78.2" stroke="#010101"/><path d="m36.3 380.5 76.3 76.4" stroke="#ffaf00"/><path d="m2.5 346.8 17.8 17.7" stroke="#ffaf00"/><path d="m51.1 378.1 49.3 49.4" stroke="#010101"/><path d="m.7 327.8 36.5 36.4" stroke="#010101"/><path d="m91.8 401.7 25.8 25.7" stroke="#ffaf00"/><path d="m23 332.9 50.1 50.1" stroke="#ffaf00"/><path d="m66.8 359.6 34.8 34.8" stroke="#010101"/><path d="m27.1 319.9 26.1 26" stroke="#010101"/><path d="m97.8 373.3 13.5 13.6" stroke="#ffaf00"/><path d="m48 323.5 34.3 34.4" stroke="#ffaf00"/><path d="m90.7 349.1 8.3 8.4" stroke="#010101"/><path d="m76.1 334.5 5.8 5.8" stroke="#010101"/></g><g style="clip-path:url(#b);fill:none;stroke-width:1.1533;stroke-linecap:round;stroke-linejoin:round;stroke-miterlimit:10"><g stroke="#010101"><path d="m708.8 104.7 4.1 4.1"/><path d="m694.6 90.5 7.6 7.6"/><path d="m707.5 91.4 28.6 28.6"/><path d="m692.9 76.8 5.8 5.8"/></g><path d="m728 100 25.2 25.2" stroke="#ffaf00"/><path d="m690 62 26.9 26.9" stroke="#ffaf00"/><path d="m711.1 71.1 44.4 44.5" stroke="#010101"/><path d="m692.7 52.7 9.4 9.4" stroke="#010101"/><path d="m747.8 95.9 10.7 10.6" stroke="#010101"/><path d="m682.1 30.1 54.5 54.5" stroke="#010101"/><path d="m725.8 61.9 53.2 53.2" stroke="#ffaf00"/><path d="m702.3 38.4 12.3 12.3" stroke="#ffaf00"/><path d="m736.1 60.2 34.4 34.4" stroke="#010101"/><path d="m701 25.1 25.4 25.4" stroke="#010101"/><path d="m764.5 76.6 17.9 18" stroke="#ffaf00"/><path d="m716.5 28.7 34.9 34.9" stroke="#ffaf00"/><path d="m747.1 47.3 24.2 24.2" stroke="#010101"/><path d="m719.4 19.6 18.2 18.2" stroke="#010101"/><path d="m768.6 56.9 9.5 9.4" stroke="#ffaf00"/><path d="m733.9 22.2 23.9 23.9" stroke="#ffaf00"/><path d="m763.7 40 5.8 5.8" stroke="#010101"/><path d="m753.5 29.8 4 4" stroke="#010101"/></g><g clip-path="url(#b)"><path d="m397.4 150.3-42.4-42.5c-.7-.7-.7-1.8 0-2.4l42.4-42.4c.7-.7 1.8-.7 2.4 0l42.4 42.4c.7.7.7 1.8 0 2.4l-42.4 42.4c-.6.7-1.7.7-2.4.1z" fill="none" stroke="#ffaf00" stroke-miterlimit="10" stroke-width="1.7707"/><g fill="#010101"><circle cx="399.5" cy="49" r="1"/><circle cx="410.5" cy="60" r="1"/><circle cx="421.5" cy="71" r="1"/><circle cx="432.5" cy="82" r="1"/><circle cx="443.5" cy="93" r="1"/><circle cx="389.7" cy="58.8" r="1"/><circle cx="400.7" cy="69.8" r="1"/><circle cx="411.7" cy="80.8" r="1"/><circle cx="422.7" cy="91.8" r="1"/><circle cx="433.7" cy="102.8" r="1"/><circle cx="379.8" cy="68.7" r="1"/><circle cx="390.8" cy="79.7" r="1"/><circle cx="401.8" cy="90.7" r="1"/><circle cx="412.8" cy="101.7" r="1"/><circle cx="423.8" cy="112.7" r="1"/><circle cx="370" cy="78.5" r="1"/><circle cx="381" cy="89.5" r="1"/><circle cx="392" cy="100.5" r="1"/><circle cx="403" cy="111.5" r="1"/><circle cx="414" cy="122.5" r="1"/><circle cx="360.2" cy="88.3" r="1"/><circle cx="371.2" cy="99.3" r="1"/><circle cx="382.2" cy="110.3" r="1"/><circle cx="393.2" cy="121.3" r="1"/><circle cx="404.2" cy="132.3" r="1"/><circle cx="350.3" cy="98.2" r="1"/><circle cx="361.3" cy="109.2" r="1"/><circle cx="372.3" cy="120.2" r="1"/><circle cx="383.3" cy="131.2" r="1"/><circle cx="394.3" cy="142.2" r="1"/></g></g><g clip-path="url(#b)"><path d="m456.5 346.3h51.3c.8 0 1.5.7 1.5 1.5v51.3c0 .8-.7 1.5-1.5 1.5h-51.3c-.8 0-1.5-.7-1.5-1.5v-51.3c0-.8.7-1.5 1.5-1.5z" fill="none" stroke="#ffaf00" stroke-miterlimit="10" stroke-width="2"/><g fill="#010101"><circle cx="514.8" cy="409.7" r=".8"/><circle cx="501.5" cy="409.7" r=".8"/><circle cx="488.2" cy="409.7" r=".8"/><circle cx="474.8" cy="409.7" r=".8"/><circle cx="461.5" cy="409.7" r=".8"/><circle cx="514.8" cy="397.8" r=".8"/><circle cx="501.5" cy="397.8" r=".8"/><circle cx="488.2" cy="397.8" r=".8"/><circle cx="474.8" cy="397.8" r=".8"/><circle cx="461.5" cy="397.8" r=".8"/><circle cx="514.8" cy="385.9" r=".8"/><circle cx="501.5" cy="385.9" r=".8"/><circle cx="488.2" cy="385.9" r=".8"/><circle cx="474.8" cy="385.9" r=".8"/><circle cx="461.5" cy="385.9" r=".8"/><circle cx="514.8" cy="374" r=".8"/><circle cx="501.5" cy="374" r=".8"/><circle cx="488.2" cy="374" r=".8"/><circle cx="474.8" cy="374" r=".8"/><circle cx="461.5" cy="374" r=".8"/><circle cx="514.8" cy="362.1" r=".8"/><circle cx="501.5" cy="362.1" r=".8"/><circle cx="488.2" cy="362.1" r=".8"/><circle cx="474.8" cy="362.1" r=".8"/><circle cx="461.5" cy="362.1" r=".8"/><circle cx="514.8" cy="350.2" r=".8"/><circle cx="501.5" cy="350.2" r=".8"/><circle cx="488.2" cy="350.2" r=".8"/><circle cx="474.8" cy="350.2" r=".8"/><circle cx="461.5" cy="350.2" r=".8"/></g></g><g style="clip-path:url(#b);fill:none;stroke-width:2;stroke-linecap:round;stroke-linejoin:round;stroke-miterlimit:10"><g stroke="#010101"><path d="m150.8 160 28.3 20 28.4-20"/><path d="m37.3 160 28.3 20 28.4-20 28.4 20"/><path d="m-19.5 160 28.4 20"/></g><path d="m122.4 162 28.4-20 28.3 20 28.4-20" stroke="#ffaf00"/><path d="m-19.5 142 28.4 20 28.4-20 28.3 20 28.4-20" stroke="#ffaf00"/></g><g style="clip-path:url(#b);fill:none;stroke-width:2;stroke-linecap:round;stroke-linejoin:round;stroke-miterlimit:10"><path d="m649.5 251 28.4 20 28.4-20 28.3 20 28.4-20 28.4 20 28.4-20 28.3 20 28.4-20" stroke="#010101"/><path d="m649.5 233 28.4 20 28.4-20 28.3 20 28.4-20 28.4 20 28.4-20 28.3 20 28.4-20" stroke="#ffaf00"/></g><g clip-path="url(#b)"><circle cx="276.1" cy="451.4" fill="#ffaf00" r="28.5"/><g style="fill:none;stroke:#010101;stroke-width:3;stroke-linecap:round;stroke-linejoin:round;stroke-miterlimit:10"><circle cx="265.8" cy="441.2" r="28.5"/><circle cx="265.8" cy="441.2" r="13.8"/></g></g><g clip-path="url(#b)"><circle cx="55.3" cy="98.3" fill="#ffaf00" r="17.2"/><circle cx="49.1" cy="92.1" r="17.2" style="fill:none;stroke:#010101;stroke-width:2;stroke-linecap:round;stroke-linejoin:round;stroke-miterlimit:10"/></g><g clip-path="url(#b)" fill="none" stroke="#ffaf00" stroke-miterlimit="10" stroke-width="2.3747"><path d="m536.6 243.9-34.4 34.4c-.5.5-1.4.5-2 0l-34.2-34.4c-.5-.5-.5-1.4 0-2l34.4-34.4c.5-.5 1.4-.5 2 0l34.4 34.4c.4.6.4 1.5-.2 2z"/><path d="m521.5 243.5-19.6 19.6c-.3.3-.8.3-1.1 0l-19.6-19.6c-.3-.3-.3-.8 0-1.1l19.6-19.6c.3-.3.8-.3 1.1 0l19.6 19.6c.3.3.3.8 0 1.1z"/></g><g clip-path="url(#b)"><path d="m178.7 333.7-24.1 24.1c-.4.4-1 .4-1.4 0l-24.1-24.1c-.4-.4-.4-1 0-1.4l24.1-24.1c.4-.4 1-.4 1.4 0l24.1 24.1c.4.4.4 1 0 1.4z" fill="none" stroke="#ffaf00" stroke-miterlimit="10" stroke-width="1.6628"/><path d="m166.4 335.1-10.3 10.3c-1.2 1.2-3.1 1.2-4.2 0l-10.3-10.3c-1.2-1.2-1.2-3.1 0-4.2l10.3-10.3c1.2-1.2 3.1-1.2 4.2 0l10.3 10.3c1.2 1.2 1.2 3 0 4.2z" fill="#010101"/></g><g clip-path="url(#b)" fill="none" stroke-miterlimit="10" stroke-width="2"><path d="m362 157.2-18.6 18.6c-.3.3-.8.3-1.1 0l-18.6-18.6c-.3-.3-.3-.8 0-1.1l18.6-18.6c.3-.3.8-.3 1.1 0l18.6 18.6c.3.4.3.8 0 1.1z" stroke="#ffaf00"/><path d="m352.5 158.3-8 8c-.9.9-2.4.9-3.3 0l-8-8c-.9-.9-.9-2.4 0-3.3l8-8c.9-.9 2.4-.9 3.3 0l8 8c.9 1 .9 2.4 0 3.3z" stroke="#010101"/></g><g clip-path="url(#b)"><path d="m511.2 4.3-24.7 24.7c-.4.4-1 .4-1.4 0l-24.7-24.7c-.4-.4-.4-1 0-1.4l24.7-24.7c.4-.4 1-.4 1.4 0l24.7 24.7c.4.3.4 1 0 1.4z" fill="none" stroke="#ffaf00" stroke-miterlimit="10" stroke-width="1.7064"/><path d="m500.3 4-14.1 14.1c-.2.2-.6.2-.8 0l-14.1-14.1c-.2-.2-.2-.6 0-.8l14.1-14.2c.2-.2.6-.2.8 0l14.1 14.1c.2.3.2.6 0 .9z" fill="#010101"/></g><g fill="none"><path d="m290.7 341.7 186.6 186.6" style="stroke:#010101;stroke-width:2;stroke-linecap:round;stroke-linejoin:round;stroke-miterlimit:10;clip-path:url(#b)"/><path d="m479.3 131 40.4 40.3" style="stroke:#010101;stroke-width:2;stroke-linecap:round;stroke-linejoin:round;stroke-miterlimit:10;clip-path:url(#b)"/><path d="m617.3 88 21.9 21.8" style="stroke:#010101;stroke-width:2;stroke-linecap:round;stroke-linejoin:round;stroke-miterlimit:10;clip-path:url(#b)"/><path d="m369.5-20.5 39.8 39.8" style="stroke:#ffaf00;stroke-width:2;stroke-linecap:round;stroke-linejoin:round;stroke-miterlimit:10;clip-path:url(#b)"/><path d="m166 406.2 21.9 21.8" style="stroke:#ffaf00;stroke-width:2;stroke-linecap:round;stroke-linejoin:round;stroke-miterlimit:10;clip-path:url(#b)"/><path d="m276.1 149.6 54.8 54.7" style="stroke:#ffaf00;stroke-width:2;stroke-linecap:round;stroke-linejoin:round;stroke-miterlimit:10;clip-path:url(#b)"/><path d="m343.3 425 186.7 186.7" style="stroke:#ffaf00;stroke-width:2;stroke-linecap:round;stroke-linejoin:round;stroke-miterlimit:10;clip-path:url(#b)"/><path d="m670.3 451 186.7 186.7" style="stroke:#ffaf00;stroke-width:2;stroke-linecap:round;stroke-linejoin:round;stroke-miterlimit:10;clip-path:url(#b)"/><path d="m687.7 320.7 186.6 186.6" style="stroke:#010101;stroke-width:2;stroke-linecap:round;stroke-linejoin:round;stroke-miterlimit:10;clip-path:url(#b)"/><path d="m718.2 330.2 186.6 186.6" style="stroke:#ffaf00;stroke-width:2;stroke-linecap:round;stroke-linejoin:round;stroke-miterlimit:10;clip-path:url(#b)"/><g clip-path="url(#b)" stroke-linecap="round" stroke-linejoin="round" stroke-miterlimit="10" stroke-width="2"><path d="m56-129.7 186.7 186.7" stroke="#ffaf00"/><path d="m0-153.7 186.7 186.7" stroke="#010101"/></g></g><g clip-path="url(#b)"><path d="m408 226.8-18 18.1-18-18.1-14.2 14.2 18.1 18-18.1 18 14.2 14.2 18-18.1 18 18.1 14.2-14.2-18.1-18 18.1-18z" fill="#010101"/><path d="m405.7 213.2-18 18-18.1-18-14.1 14.1 18 18-18 18.1 14.1 14.1 18.1-18 18 18 14.1-14.1-18-18.1 18-18z" style="fill:none;stroke:#ffaf00;stroke-width:2;stroke-linecap:round;stroke-linejoin:round;stroke-miterlimit:10"/></g><g clip-path="url(#b)"><path d="m142 44-8 8-8-8-6.3 6.3 8 8-8 8 6.3 6.2 8-8 8 8 6.3-6.2-8-8 8-8z" fill="#010101"/><path d="m141 37.9-8 8-8-8-6.3 6.3 8 8-9.5 7 6.3 6.3 9.5-7 8 8 6.2-6.3-8-8 8-8z" fill="none" stroke="#ffaf00" stroke-linecap="round" stroke-linejoin="round" stroke-miterlimit="10"/></g><g clip-path="url(#b)"><path d="m596.4 253.9-8 8-8-8-6.3 6.2 8 8-8 8 6.3 6.3 8-8 8 8 6.2-6.3-8-8 8-8z" fill="#010101"/><path d="m595.3 247.8-8 8-8-8-6.2 6.3 8 8-9.5 7 6.2 6.2 9.5-7 8 8 6.3-6.2-8-8 8-8z" fill="none" stroke="#ffaf00" stroke-linecap="round" stroke-linejoin="round" stroke-miterlimit="10"/></g><g clip-path="url(#b)"><path d="m208.5 365.8 40.8-36.2-4 58.1z" fill="#ffaf00"/><g style="fill:none;stroke:#010101;stroke-width:2;stroke-linecap:round;stroke-linejoin:round;stroke-miterlimit:10"><path d="m200.8 352.5 43.4-33-8.4 57.7z"/><path d="m244.2 319.5c-.7.8-21.5 34.2-21.5 34.2l13.2 23.5z"/><path d="m200.8 352.5 21.9 1.2 21.5-34.2z"/></g></g><g clip-path="url(#b)"><path d="m635.3 183.3 52.8-13.3-30.3 49.7z" fill="#ffaf00"/><g style="fill:none;stroke:#010101;stroke-width:2;stroke-linecap:round;stroke-linejoin:round;stroke-miterlimit:10"><path d="m634.6 168 53.6-9.4-33.9 47.4z"/><path d="m688.2 158.6c-1 .4-34.8 20.4-34.8 20.4l.9 26.9z"/><path d="m634.6 168 18.8 11.1 34.8-20.5z"/></g></g><g clip-path="url(#b)" fill="none" stroke-linecap="round" stroke-linejoin="round" stroke-miterlimit="10"><path d="m272.6 283.6c6.9-6.9 18.2-6.9 25.1 0s6.9 18.2 0 25.1" stroke="#ffaf00" stroke-width="6"/><path d="m272.9 283.3c6.9-6.9 18.2-6.9 25.1 0s6.9 18.2 0 25.1" stroke="#010101" stroke-width="2"/></g><g clip-path="url(#b)" fill="none" stroke-miterlimit="10"><path d="m509.8 79.1c6.9 6.9 6.9 18.2 0 25.1s-18.2 6.9-25.1 0" stroke="#ffaf00" stroke-width="6"/><path d="m510 79.4c6.9 6.9 6.9 18.2 0 25.1s-18.2 6.9-25.1 0" stroke="#010101" stroke-linecap="round" stroke-linejoin="round" stroke-width="2"/></g><g clip-path="url(#b)" fill="none" stroke-miterlimit="10"><path d="m130.8 520.3c-6.9-6.9-6.9-18.2 0-25.1s18.2-6.9 25.1 0" stroke="#ffaf00" stroke-width="6"/><path d="m130.5 520.1c-6.9-6.9-6.9-18.2 0-25.1s18.2-6.9 25.1 0" stroke="#010101" stroke-linecap="round" stroke-linejoin="round" stroke-width="2"/></g><path d="m436 187.3c-4.6-8.7-1.3-19.4 7.4-24s19.4-1.3 24 7.4" style="fill:none;stroke:#ffaf00;stroke-width:15;stroke-linecap:round;stroke-linejoin:round;stroke-miterlimit:10;clip-path:url(#b)"/><path d="m272.8-9.7c6.9-6.9 18.2-6.9 25.1 0s6.9 18.2 0 25.1" style="fill:none;stroke:#010101;stroke-width:15;stroke-linecap:round;stroke-linejoin:round;stroke-miterlimit:10;clip-path:url(#b)"/><g clip-path="url(#b)"><path d="m593.9 477.8c-2.5 0-4.9-.9-6.8-2.8-3.8-3.8-3.8-9.8 0-13.6 5.1-5.1 5.1-13.5 0-18.6s-13.5-5.1-18.6 0c-3.8 3.8-9.8 3.8-13.6 0s-3.8-9.8 0-13.6c12.6-12.6 33.1-12.6 45.8 0 12.6 12.6 12.6 33.1 0 45.8-1.9 1.8-4.3 2.8-6.8 2.8z" fill="#ffaf00"/><path d="m599.7 472c-2.5 0-4.9-.9-6.8-2.8-3.8-3.8-3.8-9.8 0-13.6 5.1-5.1 5.1-13.5 0-18.6s-13.5-5.1-18.6 0c-3.8 3.8-9.8 3.8-13.6 0s-3.8-9.8 0-13.6c12.6-12.6 33.1-12.6 45.8 0 12.6 12.6 12.6 33.1 0 45.8-1.9 1.8-4.3 2.8-6.8 2.8z" fill="none" stroke="#010101" stroke-miterlimit="10" stroke-width="2.5624"/></g><g clip-path="url(#b)" fill="#ffaf00"><path d="m288.9 125.4c-.1-1.1.6-2 1.7-2.1 1.1-.1 2 .6 2.1 1.7.1 1.1-.6 2-1.7 2.1-.1 0-.2 0-.2 0-1 0-1.8-.7-1.9-1.7zm-12.2 0c-1-.4-1.5-1.5-1.1-2.5.4-1 1.5-1.5 2.5-1.1 1 .4 1.5 1.5 1.1 2.5-.3.8-1 1.2-1.8 1.2-.3 0-.5-.1-.7-.1zm25.1-3.9c-.6-.9-.4-2.1.5-2.7.9-.6 2.1-.4 2.7.5.6.9.4 2.1-.5 2.7-.3.2-.7.3-1.1.3-.6 0-1.2-.3-1.6-.8zm-37-4.3c-.7-.8-.6-2 .2-2.7.8-.7 2-.6 2.7.2.7.8.6 2-.2 2.7-.4.3-.8.5-1.3.5-.5-.1-1-.3-1.4-.7zm46.7-5.2c-.9-.5-1.3-1.7-.8-2.6.5-.9 1.7-1.3 2.6-.8.9.5 1.3 1.7.8 2.6-.3.7-1 1-1.7 1-.3 0-.7-.1-.9-.2zm-53.5-7.6c-.3-1 .4-2.1 1.4-2.3 1-.3 2.1.4 2.3 1.4.3 1-.4 2.1-1.4 2.3-.2 0-.3.1-.5.1-.7 0-1.5-.6-1.8-1.5zm55.7-7.3c0-.1 0-.1 0-.1 0-1.1.9-1.9 1.9-1.9 1.1 0 1.9.9 1.9 1.9v.1.1c0 1.1-.9 1.9-1.9 1.9-1.1 0-1.9-.9-1.9-2zm-54.3-4.8c-1-.3-1.7-1.3-1.4-2.3.3-1 1.3-1.7 2.3-1.4 1 .3 1.7 1.3 1.4 2.3-.2.9-1 1.5-1.9 1.5-.1 0-.2-.1-.4-.1zm51.2-7.5c-.5-.9-.1-2.1.8-2.6.9-.5 2.1-.1 2.6.8.5.9.1 2.1-.8 2.6-.3.2-.6.2-.9.2-.7 0-1.3-.3-1.7-1zm-45.7-4.9c-.8-.7-.9-1.9-.2-2.7.7-.8 1.9-.9 2.7-.2.8.7.9 1.9.2 2.7-.4.4-.9.6-1.5.6-.4.1-.9-.1-1.2-.4zm37.3-4.5c-.9-.6-1.1-1.8-.5-2.7.6-.9 1.8-1.1 2.7-.5.9.6 1.1 1.8.5 2.7-.4.5-1 .8-1.6.8-.4.1-.7-.1-1.1-.3zm-26.7-4c-.4-1 .1-2.1 1.1-2.5 1-.4 2.1.1 2.5 1.1.4 1-.1 2.1-1.1 2.5-.2.1-.5.1-.7.1-.8.1-1.6-.4-1.8-1.2zm14.9-.4c-1.1-.1-1.8-1.1-1.7-2.1.1-1.1 1.1-1.8 2.1-1.7 1.1.1 1.8 1.1 1.7 2.1-.1 1-.9 1.7-1.9 1.7s-.1 0-.2 0z"/><path d="m288.6 120.3c-.1-.9.5-1.6 1.4-1.8.9-.1 1.7.5 1.8 1.4.1.9-.5 1.6-1.4 1.8-.1 0-.1 0-.2 0-.8-.1-1.5-.6-1.6-1.4zm-10-.1c-.8-.3-1.2-1.2-.9-2 .3-.8 1.2-1.2 2-.9.8.3 1.2 1.2.9 2-.2.6-.8 1-1.5 1-.1 0-.3 0-.5-.1zm20.6-3.2c-.5-.7-.3-1.7.4-2.2.7-.5 1.7-.3 2.2.4.5.7.3 1.7-.4 2.2-.3.2-.6.3-.9.3-.5 0-1-.2-1.3-.7zm-30.3-3.5c-.6-.6-.5-1.6.1-2.2.6-.6 1.6-.5 2.2.1.6.6.5 1.6-.1 2.2-.3.3-.7.4-1 .4-.5.1-.9-.1-1.2-.5zm38.2-4.2c-.8-.4-1.1-1.4-.7-2.1.4-.8 1.4-1.1 2.1-.7.8.4 1.1 1.4.7 2.1-.3.5-.8.8-1.4.8-.2 0-.5 0-.7-.1zm-43.7-6.2c-.2-.8.3-1.7 1.1-1.9.8-.2 1.7.3 1.9 1.1.2.8-.3 1.7-1.2 1.9-.1 0-.3 0-.4 0-.6.1-1.2-.4-1.4-1.1zm45.5-6c0-1 .7-1.7 1.6-1.7.9 0 1.6.7 1.6 1.6v.1c0 .9-.7 1.6-1.6 1.6-.9 0-1.6-.7-1.6-1.6zm-44.4-3.9c-.8-.2-1.4-1.1-1.2-1.9.2-.8 1.1-1.4 1.9-1.2.8.2 1.4 1.1 1.2 1.9-.2.7-.8 1.2-1.5 1.2-.1 0-.3 0-.4 0zm41.9-6.2c-.4-.8-.1-1.7.7-2.1.8-.4 1.7-.1 2.1.7.4.8.1 1.7-.7 2.1-.2.1-.5.2-.7.2-.6 0-1.1-.3-1.4-.9zm-37.4-4c-.7-.6-.7-1.6-.1-2.2.6-.7 1.6-.7 2.2-.1.7.6.7 1.6.1 2.2-.3.4-.8.5-1.2.5-.4 0-.7-.1-1-.4zm30.5-3.6c-.7-.5-.9-1.5-.4-2.2.5-.7 1.5-.9 2.2-.4.7.5.9 1.5.4 2.2-.3.4-.8.7-1.3.7-.3-.1-.6-.1-.9-.3zm-21.9-3.3c-.3-.8.1-1.7.9-2 .8-.3 1.7.1 2 .9.3.8-.1 1.7-.9 2-.2.1-.4.1-.6.1-.5 0-1.1-.4-1.4-1zm12.3-.4c-.9-.1-1.5-.9-1.4-1.7.1-.9.9-1.5 1.8-1.4.9.1 1.5.9 1.4 1.7-.1.8-.8 1.4-1.6 1.4-.1.1-.2.1-.2 0z"/><path d="m288.3 115.9c-.1-.7.4-1.3 1.1-1.4.7-.1 1.3.4 1.4 1.1.1.7-.4 1.3-1.1 1.4-.1 0-.1 0-.2 0-.5 0-1.1-.5-1.2-1.1zm-8-.1c-.7-.3-1-1-.7-1.6.3-.7 1-1 1.6-.7.7.3 1 1 .7 1.6-.2.5-.7.8-1.2.8-.1 0-.3 0-.4-.1zm16.6-2.5c-.4-.6-.3-1.4.3-1.8.6-.4 1.4-.3 1.8.3.4.6.3 1.4-.3 1.8-.2.2-.5.2-.7.2-.4 0-.8-.2-1.1-.5zm-24.5-2.9c-.5-.5-.4-1.3.1-1.8.5-.5 1.3-.4 1.8.1.5.5.4 1.3-.1 1.8-.2.2-.5.3-.8.3-.4 0-.8-.1-1-.4zm30.9-3.4c-.6-.3-.9-1.1-.5-1.7.3-.6 1.1-.9 1.7-.5.6.3.9 1.1.5 1.7-.2.4-.7.7-1.1.7-.2-.1-.4-.1-.6-.2zm-35.4-5.1c-.2-.7.2-1.4.9-1.5.7-.2 1.4.3 1.5.9.2.7-.3 1.4-.9 1.5-.1 0-.2 0-.3 0-.5.1-1-.3-1.2-.9zm36.9-4.8c0-.8.6-1.3 1.3-1.3.7 0 1.3.6 1.3 1.3 0 .7-.6 1.3-1.3 1.3-.7 0-1.3-.6-1.3-1.3zm-36-3.2c-.7-.2-1.1-.9-.9-1.5.2-.7.9-1.1 1.5-.9.7.2 1.1.9.9 1.5-.1.6-.7 1-1.2 1s-.2-.1-.3-.1zm34-4.9c-.3-.6-.1-1.4.5-1.7.6-.3 1.4-.1 1.7.5.3.6.1 1.4-.5 1.7-.2.1-.4.1-.6.1-.5 0-.9-.2-1.1-.6zm-30.3-3.3c-.5-.5-.6-1.3-.1-1.8.5-.5 1.3-.6 1.8-.1.5.5.6 1.3.1 1.8-.3.3-.6.4-1 .4-.3 0-.6-.1-.8-.3zm24.7-3c-.6-.4-.7-1.2-.3-1.8.4-.6 1.2-.7 1.8-.3.6.4.7 1.2.3 1.8-.3.4-.6.6-1.1.6-.2 0-.5-.1-.7-.3zm-17.7-2.6c-.3-.7.1-1.4.7-1.7.7-.3 1.4.1 1.6.7.3.7-.1 1.4-.7 1.6-.1.1-.3.1-.5.1-.5.1-.9-.2-1.1-.7zm9.9-.3c-.7-.1-1.2-.7-1.1-1.4.1-.7.7-1.2 1.4-1.1.7.1 1.2.7 1.1 1.4-.1.6-.6 1.1-1.3 1.1z"/></g><g clip-path="url(#b)" fill="#ffaf00"><path d="m66.4 276.3c-.1-1 .6-1.9 1.6-2 1-.1 1.9.6 2 1.6.1 1-.6 1.9-1.6 2-.1 0-.2 0-.2 0-.9 0-1.7-.7-1.8-1.6zm-11.4 0c-.9-.4-1.4-1.4-1-2.3.3-.9 1.4-1.4 2.3-1.1.9.4 1.4 1.4 1.1 2.3-.3.7-1 1.2-1.7 1.2-.3 0-.5-.1-.7-.1zm23.6-3.7c-.6-.8-.4-1.9.5-2.5.8-.6 1.9-.4 2.5.5.6.8.4 1.9-.5 2.5-.3.2-.7.3-1 .3-.6 0-1.2-.3-1.5-.8zm-34.7-4c-.7-.7-.6-1.9.1-2.6.7-.7 1.9-.6 2.6.2.7.7.6 1.9-.2 2.6-.3.3-.8.5-1.2.5-.5-.1-1-.3-1.3-.7zm43.7-4.9c-.9-.5-1.2-1.6-.8-2.4.5-.9 1.6-1.2 2.4-.8.9.5 1.2 1.6.8 2.4-.3.6-1 1-1.6 1-.2 0-.5-.1-.8-.2zm-50-7.1c-.2-1 .4-1.9 1.3-2.2 1-.2 1.9.3 2.2 1.3.2 1-.4 1.9-1.3 2.2-.1 0-.3.1-.4.1-.9 0-1.6-.6-1.8-1.4zm52.1-6.8c0-.1 0-.1 0 0 0-1.1.8-1.9 1.8-1.9 1 0 1.8.8 1.8 1.8v.1.1c0 1-.8 1.8-1.8 1.8-1-.1-1.8-.9-1.8-1.9zm-50.8-4.5c-1-.2-1.6-1.2-1.3-2.2.2-1 1.2-1.6 2.2-1.3 1 .2 1.6 1.2 1.3 2.2-.2.8-.9 1.4-1.8 1.4-.2-.1-.3-.1-.4-.1zm47.9-7.1c-.5-.9-.1-2 .8-2.4.9-.5 2-.1 2.4.7.5.9.1 2-.7 2.4-.3.1-.6.2-.8.2-.7.1-1.4-.2-1.7-.9zm-42.8-4.6c-.7-.7-.8-1.8-.2-2.5.7-.8 1.8-.8 2.5-.2.7.7.8 1.8.2 2.6-.4.4-.9.6-1.4.6-.4 0-.8-.2-1.1-.5zm35-4.2c-.8-.6-1-1.7-.5-2.5.6-.8 1.7-1 2.5-.5.8.6 1 1.7.5 2.5-.3.5-.9.8-1.5.8-.4 0-.7-.1-1-.3zm-25.1-3.7c-.4-.9.1-2 1-2.3.9-.4 2 .1 2.3 1 .4.9-.1 2-1 2.3-.2.1-.4.1-.7.1-.7.1-1.4-.4-1.6-1.1zm14-.4c-1-.1-1.7-1-1.6-2 .1-1 1-1.7 2-1.6 1 .1 1.7 1 1.6 2-.1.9-.9 1.6-1.8 1.6s-.1 0-.2 0z"/><path d="m66.2 271.5c-.1-.8.5-1.5 1.3-1.6.8-.1 1.5.5 1.6 1.3.1.8-.5 1.5-1.3 1.6-.1 0-.1 0-.2 0-.7 0-1.3-.6-1.4-1.3zm-9.4-.1c-.8-.3-1.1-1.1-.9-1.9.3-.8 1.1-1.1 1.9-.9.8.3 1.1 1.1.9 1.9-.2.6-.8 1-1.4 1-.1 0-.3 0-.5-.1zm19.3-2.9c-.5-.7-.3-1.6.4-2.1.7-.5 1.6-.3 2.1.4.5.7.3 1.6-.4 2.1-.3.2-.6.3-.8.3-.5-.1-1-.3-1.3-.7zm-28.4-3.3c-.5-.6-.5-1.5.1-2.1.6-.5 1.5-.5 2.1.1.5.6.5 1.5-.1 2.1-.3.2-.6.4-1 .4-.4 0-.8-.2-1.1-.5zm35.8-4c-.7-.4-1-1.3-.6-2 .4-.7 1.3-1 2-.6.7.4 1 1.3.6 2-.3.5-.8.8-1.3.8-.2-.1-.5-.1-.7-.2zm-41-5.8c-.2-.8.3-1.6 1.1-1.8.8-.2 1.6.3 1.8 1.1.2.8-.3 1.6-1.1 1.8-.1 0-.2 0-.4 0-.6 0-1.2-.5-1.4-1.1zm42.7-5.6c0-.1 0-.1 0 0 0-.9.7-1.6 1.5-1.6.8 0 1.5.7 1.5 1.5 0 .8-.7 1.5-1.5 1.5-.8.1-1.5-.6-1.5-1.4zm-41.6-3.7c-.8-.2-1.3-1-1.1-1.8.2-.8 1-1.3 1.8-1.1.8.2 1.3 1 1.1 1.8-.2.7-.8 1.1-1.4 1.1-.2 0-.3 0-.4 0zm39.3-5.8c-.4-.7-.1-1.6.6-2 .7-.4 1.6-.1 2 .6.4.7.1 1.6-.6 2-.2.1-.5.2-.7.2-.6 0-1.1-.3-1.3-.8zm-35.1-3.7c-.6-.5-.7-1.5-.1-2.1.5-.6 1.5-.7 2.1-.1.6.5.7 1.5.1 2.1-.3.3-.7.5-1.1.5-.4-.1-.7-.2-1-.4zm28.6-3.5c-.7-.5-.8-1.4-.4-2.1.5-.7 1.4-.8 2.1-.4.7.5.8 1.4.4 2.1-.3.4-.8.6-1.2.6-.3.1-.6 0-.9-.2zm-20.5-3c-.3-.8.1-1.6.8-1.9.8-.3 1.6.1 1.9.9.3.8-.1 1.6-.8 1.9-.2.1-.4.1-.5.1-.6-.1-1.2-.4-1.4-1zm11.5-.4c-.8-.1-1.4-.8-1.3-1.6.1-.8.8-1.4 1.6-1.3.8.1 1.4.8 1.3 1.6-.1.8-.7 1.3-1.5 1.3z"/><path d="m66 267.4c-.1-.7.4-1.3 1-1.3.7-.1 1.3.4 1.3 1 .1.6-.4 1.3-1 1.3h-.1c-.7 0-1.2-.4-1.2-1zm-7.6-.1c-.6-.2-.9-.9-.7-1.5.2-.6.9-.9 1.5-.7.6.2.9.9.7 1.5-.2.5-.6.8-1.1.8-.1 0-.3 0-.4-.1zm15.6-2.4c-.4-.5-.2-1.3.3-1.7.5-.4 1.3-.2 1.7.3.4.5.2 1.3-.3 1.7-.2.1-.4.2-.7.2-.4 0-.8-.2-1-.5zm-23-2.7c-.4-.5-.4-1.2.1-1.7.5-.4 1.3-.4 1.7.1.4.5.4 1.3-.1 1.7-.2.2-.5.3-.8.3-.3 0-.7-.1-.9-.4zm29-3.2c-.6-.3-.8-1-.5-1.6.3-.6 1-.8 1.6-.5.6.3.8 1 .5 1.6-.2.4-.6.6-1.1.6-.1 0-.3 0-.5-.1zm-33.2-4.7c-.2-.6.2-1.3.9-1.5.6-.2 1.3.2 1.5.9.2.6-.2 1.3-.9 1.5-.1 0-.2 0-.3 0-.6 0-1.1-.3-1.2-.9zm34.6-4.5c0-.1 0-.1 0 0 0-.7.5-1.3 1.2-1.3.7 0 1.2.5 1.2 1.2 0 .7-.5 1.2-1.2 1.2-.7.1-1.2-.5-1.2-1.1zm-33.7-3c-.6-.2-1-.8-.9-1.4.2-.6.8-1 1.4-.9.6.2 1 .8.9 1.5-.1.5-.6.9-1.2.9 0-.1-.1-.1-.2-.1zm31.8-4.7c-.3-.6-.1-1.3.5-1.6.6-.3 1.3-.1 1.6.5.3.6.1 1.3-.5 1.6-.2.1-.4.1-.6.1-.4.1-.8-.2-1-.6zm-28.4-3c-.5-.4-.5-1.2-.1-1.7.4-.5 1.2-.5 1.7-.1.5.4.5 1.2.1 1.7-.2.3-.6.4-.9.4-.3 0-.6-.1-.8-.3zm23.2-2.8c-.5-.4-.7-1.1-.3-1.7.4-.5 1.1-.7 1.7-.3.5.4.7 1.1.3 1.7-.2.3-.6.5-1 .5-.3 0-.5-.1-.7-.2zm-16.7-2.5c-.2-.6.1-1.3.7-1.5.6-.2 1.3.1 1.5.7.2.6-.1 1.3-.7 1.5-.1.1-.3.1-.4.1-.4 0-.9-.3-1.1-.8zm9.3-.3c-.7-.1-1.1-.7-1.1-1.3.1-.7.7-1.1 1.3-1 .7.1 1.1.7 1 1.3-.1.6-.6 1.1-1.2 1.1.1 0 .1 0 0-.1z"/></g><g clip-path="url(#b)"><path d="m414.3 369c-1-.4-1.4-1.6-1-2.5.4-1 1.6-1.4 2.5-1 1 .4 1.4 1.6 1 2.5 0 .1-.1.1-.1.2-.4.8-1.5 1.2-2.4.8z" fill="#ffaf00"/><path d="m408.2 379.5c-.8.7-2 .5-2.7-.3-.7-.8-.5-2 .3-2.7.8-.7 2-.5 2.7.3.5.6.6 1.5.2 2.2-.2.2-.3.4-.5.5z" fill="#010101"/><path d="m417.4 355.8c-1.1.1-2-.7-2.1-1.8-.1-1.1.7-2 1.8-2.1 1.1-.1 2 .7 2.1 1.8 0 .4-.1.8-.3 1.1-.3.6-.8 1-1.5 1z" fill="#010101"/><path d="m395.1 385.7c-1 .2-2.1-.5-2.3-1.5-.2-1 .5-2.1 1.5-2.3 1-.2 2.1.5 2.3 1.5.1.5 0 1-.2 1.3-.2.5-.7.9-1.3 1z" fill="#010101"/><path d="m414.1 342.7c-.9.6-2.1.3-2.7-.6-.6-.9-.3-2.1.6-2.7.9-.6 2.1-.3 2.7.6.4.6.4 1.4 0 2-.2.3-.4.5-.6.7z" fill="#010101"/><path d="m380.7 385.1c-1-.3-1.6-1.4-1.3-2.4.3-1 1.4-1.6 2.4-1.3 1 .3 1.6 1.4 1.3 2.4 0 .2-.1.3-.2.4-.4.8-1.3 1.2-2.2.9z" fill="#ffaf00"/><path d="m402.3 333.4c0-.1 0-.1 0 0-1-.6-1.3-1.8-.8-2.7.5-.9 1.7-1.2 2.6-.7h.1.1c.9.5 1.2 1.7.7 2.6-.6 1-1.7 1.3-2.7.8z" fill="#ffaf00"/><path d="m370.9 377.8c-.7.8-2 .8-2.7.1-.8-.7-.8-2-.1-2.7.7-.8 2-.8 2.7-.1.7.6.8 1.6.3 2.4 0 .1 0 .2-.2.3z" fill="#010101"/><path d="m390.1 329.8c-1.1 0-1.9-.9-1.8-2 0-1.1.9-1.9 2-1.8 1.1 0 1.9.9 1.9 2 0 .3-.1.6-.3.9-.4.6-1 1-1.8.9z" fill="#ffaf00"/><path d="m362.9 366.9c-1 .3-2.1-.2-2.4-1.2-.3-1 .2-2.1 1.2-2.4 1-.3 2.1.2 2.4 1.2.2.5.1 1.1-.2 1.6-.1.3-.5.7-1 .8z" fill="#010101"/><path d="m377.8 332.4c-1 .5-2.1.1-2.6-.9-.5-1 0-2.1.9-2.6 1-.5 2.1-.1 2.6.9.3.6.2 1.3-.1 1.8-.1.3-.4.6-.8.8z" fill="#010101"/><path d="m360.9 353.5c-1.1-.2-1.8-1.2-1.6-2.2.2-1.1 1.2-1.8 2.2-1.6 1.1.2 1.8 1.2 1.6 2.2 0 .2-.1.5-.2.7-.4.6-1.2 1-2 .9z" fill="#010101"/><path d="m368.1 340.3c-.6.8-1.8 1-2.7.4-.8-.6-1-1.8-.4-2.7.6-.9 1.8-1 2.7-.4.8.6 1 1.7.5 2.5 0 .1-.1.2-.1.2z" fill="#ffaf00"/><path d="m409.8 366.7c-.8-.3-1.2-1.3-.8-2.1.3-.8 1.3-1.2 2.1-.8.8.3 1.2 1.3.8 2.1 0 .1-.1.1-.1.2-.5.6-1.3.9-2 .6z" fill="#010101"/><path d="m404.7 375.3c-.7.6-1.7.4-2.2-.2-.6-.7-.5-1.7.2-2.2.7-.6 1.7-.4 2.2.2.4.5.5 1.2.1 1.8 0 .1-.1.2-.3.4z" fill="#010101"/><path d="m412.3 355.9c-.9.1-1.6-.6-1.7-1.4-.1-.9.6-1.6 1.4-1.7.9-.1 1.6.6 1.7 1.4 0 .3-.1.6-.2.9-.2.4-.7.7-1.2.8z" fill="#010101"/><path d="m394 380.3c-.9.2-1.7-.4-1.9-1.2-.2-.9.4-1.7 1.2-1.9.9-.2 1.7.4 1.9 1.2.1.4 0 .8-.2 1.1-.1.4-.5.7-1 .8z" fill="#010101"/><path d="m409.5 345.1c-.7.5-1.7.2-2.2-.5-.5-.7-.2-1.7.5-2.2.7-.5 1.7-.2 2.2.5.3.5.3 1.1 0 1.6-.1.3-.2.5-.5.6z" fill="#ffaf00"/><path d="m382.2 379.8c-.8-.2-1.3-1.1-1.1-2 .2-.8 1.1-1.3 2-1.1.8.2 1.3 1.1 1.1 2 0 .1-.1.2-.2.4-.3.6-1 .9-1.8.7z" fill="#010101"/><path d="m399.9 337.5c-.8-.5-1.1-1.4-.7-2.2.4-.8 1.4-1 2.2-.6.8.4 1 1.4.6 2.2-.3.8-1.3 1-2.1.6z" fill="#010101"/><path d="m374.3 373.9c-.6.6-1.6.7-2.2 0-.6-.6-.6-1.6 0-2.2.6-.6 1.6-.6 2.2 0 .5.5.6 1.3.3 1.9-.2.1-.3.2-.3.3z" fill="#010101"/><path d="m390 334.6c-.9 0-1.5-.8-1.5-1.6 0-.9.8-1.5 1.6-1.5.9 0 1.6.8 1.5 1.6 0 .3-.1.5-.2.7-.3.5-.8.8-1.4.8z" fill="#010101"/><path d="m367.7 364.9c-.8.3-1.7-.2-2-1-.3-.8.2-1.7 1-2 .8-.3 1.7.2 2 1 .1.4.1.9-.1 1.3-.2.4-.5.6-.9.7z" fill="#ffaf00"/><g fill="#010101"><path d="m379.9 336.7c-.8.4-1.7 0-2.1-.8-.4-.8 0-1.7.7-2.1.8-.4 1.7 0 2.1.7.2.5.2 1-.1 1.5-.1.3-.3.5-.6.7z"/><path d="m366.1 354c-.9-.1-1.4-.9-1.3-1.8.1-.9.9-1.4 1.8-1.3.9.1 1.4.9 1.3 1.8 0 .2-.1.4-.2.5-.3.6-1 .9-1.6.8z"/><path d="m371.9 343.2c-.5.7-1.5.8-2.2.3-.7-.5-.8-1.5-.3-2.2.5-.7 1.5-.8 2.2-.3.6.5.8 1.4.4 2.1s-.1.1-.1.1z"/><path d="m405.8 364.7c-.6-.3-.9-1-.7-1.7.3-.6 1-1 1.7-.7.6.3.9 1 .7 1.7s0 .1-.1.1c-.3.6-1 .8-1.6.6z"/><path d="m401.8 371.6c-.5.4-1.4.4-1.8-.2-.4-.5-.4-1.3.2-1.8.5-.4 1.4-.4 1.8.2.3.4.4 1 .1 1.4-.1.2-.2.3-.3.4z"/><path d="m407.9 355.9c-.7.1-1.3-.5-1.4-1.2-.1-.7.5-1.3 1.2-1.4.7-.1 1.3.5 1.4 1.2 0 .3 0 .5-.2.7-.2.4-.6.7-1 .7z"/></g><path d="m393.1 375.7c-.7.1-1.4-.3-1.5-1-.1-.7.3-1.4 1-1.5.7-.1 1.4.3 1.5 1 .1.3 0 .6-.1.9-.2.3-.5.6-.9.6z" fill="#ffaf00"/><path d="m405.7 347.2c-.6.4-1.4.2-1.8-.4-.4-.6-.2-1.4.4-1.8.6-.4 1.4-.2 1.8.4.3.4.3.9 0 1.3-.1.3-.3.4-.4.5z" fill="#010101"/><path d="m383.6 375.3c-.7-.2-1.1-.9-.9-1.6.2-.7.9-1.1 1.6-.9.7.2 1.1.9.9 1.6 0 .1-.1.2-.1.3-.4.6-1 .8-1.5.6z" fill="#010101"/><path d="m397.9 341c-.1 0-.1 0 0 0-.7-.4-.9-1.2-.5-1.8.3-.6 1.1-.8 1.7-.5.6.4.8 1.1.5 1.7-.3.8-1.1 1-1.7.6z" fill="#ffaf00"/><path d="m377.1 370.5c-.5.5-1.3.5-1.8 0-.5-.5-.5-1.3 0-1.8.5-.5 1.3-.5 1.8 0 .4.4.5 1.1.2 1.6-.1.1-.2.1-.2.2z" fill="#ffaf00"/><path d="m389.8 338.7c-.7 0-1.3-.6-1.2-1.3 0-.7.6-1.3 1.3-1.2.7 0 1.3.6 1.2 1.3 0 .2-.1.4-.2.6-.2.4-.6.6-1.1.6z" fill="#010101"/><path d="m371.8 363.3c-.7.2-1.4-.1-1.6-.8-.2-.7.1-1.4.8-1.6.7-.2 1.4.1 1.6.8.1.4.1.7-.1 1-.2.3-.4.5-.7.6z" fill="#010101"/><path d="m381.6 340.4c-.6.3-1.4 0-1.7-.6-.3-.6 0-1.4.6-1.7.6-.3 1.4 0 1.7.6.2.4.2.8 0 1.2-.1.2-.3.4-.6.5z" fill="#010101"/><path d="m370.4 354.4c-.7-.1-1.2-.8-1.1-1.5.1-.7.8-1.2 1.5-1.1.7.1 1.2.8 1.1 1.5 0 .2-.1.3-.2.4-.2.5-.7.8-1.3.7z" fill="#010101"/><path d="m375.2 345.7c-.4.6-1.2.7-1.8.3-.6-.4-.7-1.2-.3-1.8.4-.6 1.2-.7 1.8-.3.5.4.7 1.1.3 1.7z" fill="#010101"/></g><g clip-path="url(#b)"><path d="m663.3 23.2c-1-.4-1.4-1.6-1-2.5.4-1 1.6-1.4 2.5-1 1 .4 1.4 1.6 1 2.5 0 .1-.1.1-.1.2-.4.8-1.5 1.2-2.4.8z" fill="#ffaf00"/><path d="m657.2 33.7c-.8.7-2 .5-2.7-.3-.7-.8-.5-2 .3-2.7.8-.7 2-.5 2.7.3.5.6.6 1.5.2 2.2-.2.2-.3.4-.5.5z" fill="#010101"/><path d="m666.4 10c-1.1.1-2-.7-2.1-1.8-.1-1.1.7-2 1.8-2.1 1.1-.1 2 .7 2.1 1.8 0 .4-.1.8-.3 1.1-.3.6-.8 1-1.5 1z" fill="#010101"/><path d="m644.1 39.9c-1 .2-2.1-.5-2.3-1.5-.2-1 .5-2.1 1.5-2.3 1-.2 2.1.5 2.3 1.5.1.5 0 1-.2 1.3-.2.5-.7.9-1.3 1z" fill="#010101"/><path d="m663.1-3.1c-.9.6-2.1.3-2.7-.6-.6-.9-.3-2.1.6-2.7.9-.6 2.1-.3 2.7.6.4.6.4 1.4 0 2-.2.3-.4.5-.6.7z" fill="#010101"/><path d="m629.7 39.3c-1-.3-1.6-1.4-1.3-2.4.3-1 1.4-1.6 2.4-1.3 1 .3 1.6 1.4 1.3 2.4 0 .2-.1.3-.2.4-.4.8-1.3 1.2-2.2.9z" fill="#ffaf00"/><path d="m651.3-12.4c0-.1 0-.1 0 0-1-.6-1.3-1.8-.8-2.7.5-.9 1.7-1.2 2.6-.7h.1.1c.9.5 1.2 1.7.7 2.6-.6 1-1.7 1.3-2.7.8z" fill="#ffaf00"/><path d="m619.9 32c-.7.8-2 .8-2.7.1-.8-.7-.8-2-.1-2.7.7-.8 2-.8 2.7-.1.7.6.8 1.6.3 2.4 0 .1 0 .2-.2.3z" fill="#010101"/><path d="m639.1-16c-1.1 0-1.9-.9-1.8-2 0-1.1.9-1.9 2-1.8 1.1 0 1.9.9 1.9 2 0 .3-.1.6-.3.9-.4.6-1 1-1.8.9z" fill="#ffaf00"/><path d="m611.9 21.1c-1 .3-2.1-.2-2.4-1.2-.3-1 .2-2.1 1.2-2.4 1-.3 2.1.2 2.4 1.2.2.5.1 1.1-.2 1.6-.1.3-.5.7-1 .8z" fill="#010101"/><path d="m626.8-13.4c-1 .5-2.1.1-2.6-.9-.5-1 0-2.1.9-2.6 1-.5 2.1-.1 2.6.9.3.6.2 1.3-.1 1.8-.1.3-.4.6-.8.8z" fill="#010101"/><path d="m609.9 7.7c-1.1-.2-1.8-1.2-1.6-2.2.2-1.1 1.2-1.8 2.2-1.6 1.1.2 1.8 1.2 1.6 2.2 0 .2-.1.5-.2.7-.4.7-1.2 1.1-2 .9z" fill="#010101"/><path d="m617.1-5.5c-.6.8-1.8 1-2.7.4-.8-.6-1-1.8-.4-2.7.6-.9 1.8-1 2.7-.4.8.6 1 1.7.5 2.5 0 .1-.1.2-.1.2z" fill="#ffaf00"/><path d="m658.8 20.9c-.8-.3-1.2-1.3-.8-2.1.3-.8 1.3-1.2 2.1-.8.8.3 1.2 1.3.8 2.1 0 .1-.1.1-.1.2-.5.6-1.3.9-2 .6z" fill="#010101"/><path d="m653.7 29.5c-.7.6-1.7.4-2.2-.2-.6-.7-.5-1.7.2-2.2.7-.6 1.7-.4 2.2.2.4.5.5 1.2.1 1.8 0 .1-.1.3-.3.4z" fill="#010101"/><path d="m661.3 10.1c-.9.1-1.6-.6-1.7-1.4-.1-.9.6-1.6 1.4-1.7.9-.1 1.6.6 1.7 1.4 0 .3-.1.6-.2.9-.2.4-.7.7-1.2.8z" fill="#010101"/><path d="m643 34.5c-.9.2-1.7-.4-1.9-1.2-.2-.9.4-1.7 1.2-1.9.9-.2 1.7.4 1.9 1.2.1.4 0 .8-.2 1.1-.1.5-.5.7-1 .8z" fill="#010101"/><path d="m658.5-.6c-.7.5-1.7.2-2.2-.5-.5-.7-.2-1.7.5-2.2.7-.5 1.7-.2 2.2.5.3.5.3 1.1 0 1.6-.1.2-.2.4-.5.6z" fill="#ffaf00"/><path d="m631.2 34.1c-.8-.2-1.3-1.1-1.1-2 .2-.8 1.1-1.3 2-1.1.8.2 1.3 1.1 1.1 2 0 .1-.1.2-.2.4-.3.5-1 .9-1.8.7z" fill="#010101"/><path d="m648.9-8.3c-.8-.5-1.1-1.4-.7-2.2.4-.8 1.4-1 2.2-.6.8.4 1 1.4.6 2.2-.3.8-1.3 1.1-2.1.6z" fill="#010101"/><path d="m623.3 28.1c-.6.6-1.6.7-2.2 0-.6-.6-.6-1.6 0-2.2.6-.6 1.6-.6 2.2 0 .5.5.6 1.3.3 1.9-.2.1-.3.2-.3.3z" fill="#010101"/><path d="m639-11.2c-.9 0-1.5-.8-1.5-1.6 0-.9.8-1.5 1.6-1.5.9 0 1.6.8 1.5 1.6 0 .3-.1.5-.2.7-.3.5-.8.8-1.4.8z" fill="#010101"/><path d="m616.7 19.2c-.8.3-1.7-.2-2-1-.3-.8.2-1.7 1-2 .8-.3 1.7.2 2 1 .1.4.1.9-.1 1.3-.2.3-.5.5-.9.7z" fill="#ffaf00"/><g fill="#010101"><path d="m628.9-9.1c-.8.4-1.7 0-2.1-.8-.4-.8 0-1.7.7-2.1.8-.4 1.7 0 2.1.7.2.5.2 1-.1 1.5-.1.3-.3.5-.6.7z"/><path d="m615.1 8.2c-.9-.1-1.4-.9-1.3-1.8.1-.9.9-1.4 1.8-1.3.9.1 1.4.9 1.3 1.8 0 .2-.1.4-.2.5-.3.6-1 .9-1.6.8z"/><path d="m620.9-2.6c-.5.7-1.5.8-2.2.3-.7-.5-.8-1.5-.3-2.2.5-.7 1.5-.8 2.2-.3.6.5.8 1.4.4 2.1s-.1.1-.1.1z"/><path d="m654.8 18.9c-.6-.3-.9-1-.7-1.7.3-.6 1-1 1.7-.7.6.3.9 1 .7 1.7s0 .1-.1.1c-.3.6-1 .8-1.6.6z"/><path d="m650.8 25.8c-.5.4-1.4.4-1.8-.2-.4-.5-.4-1.3.2-1.8.5-.4 1.4-.4 1.8.2.3.4.4 1 .1 1.4-.1.2-.2.3-.3.4z"/><path d="m656.9 10.1c-.7.1-1.3-.5-1.4-1.2-.1-.7.5-1.3 1.2-1.4.7-.1 1.3.5 1.4 1.2 0 .3 0 .5-.2.7-.2.4-.6.7-1 .7z"/></g><path d="m642.1 29.9c-.7.1-1.4-.3-1.5-1-.1-.7.3-1.4 1-1.5.7-.1 1.4.3 1.5 1 .1.3 0 .6-.1.9-.2.3-.5.6-.9.6z" fill="#ffaf00"/><path d="m654.7 1.4c-.6.4-1.4.2-1.8-.4-.4-.6-.2-1.4.4-1.8.6-.4 1.4-.2 1.8.4.3.4.3.9 0 1.3-.1.3-.3.4-.4.5z" fill="#010101"/><path d="m632.6 29.5c-.7-.2-1.1-.9-.9-1.6.2-.7.9-1.1 1.6-.9.7.2 1.1.9.9 1.6 0 .1-.1.2-.1.3-.4.6-1 .8-1.5.6z" fill="#010101"/><path d="m646.9-4.8c-.1 0-.1 0 0 0-.7-.4-.9-1.2-.5-1.8.3-.6 1.1-.8 1.7-.5.6.4.8 1.1.5 1.7-.3.8-1.1 1-1.7.6z" fill="#ffaf00"/><path d="m626.1 24.7c-.5.5-1.3.5-1.8 0-.5-.5-.5-1.3 0-1.8.5-.5 1.3-.5 1.8 0 .4.4.5 1.1.2 1.6-.1.1-.2.1-.2.2z" fill="#ffaf00"/><path d="m638.8-7.1c-.7 0-1.3-.6-1.2-1.3 0-.7.6-1.3 1.3-1.2.7 0 1.3.6 1.2 1.3 0 .2-.1.4-.2.6-.2.4-.6.6-1.1.6z" fill="#010101"/><path d="m620.8 17.5c-.7.2-1.4-.1-1.6-.8-.2-.7.1-1.4.8-1.6.7-.2 1.4.1 1.6.8.1.4.1.7-.1 1-.2.3-.4.5-.7.6z" fill="#010101"/><path d="m630.6-5.4c-.6.3-1.4 0-1.7-.6-.3-.6 0-1.4.6-1.7.6-.3 1.4 0 1.7.6.2.4.2.8 0 1.2-.1.2-.3.4-.6.5z" fill="#010101"/><path d="m619.4 8.6c-.7-.1-1.2-.8-1.1-1.5.1-.7.8-1.2 1.5-1.1.7.1 1.2.8 1.1 1.5 0 .2-.1.3-.2.4-.2.5-.7.8-1.3.7z" fill="#010101"/><path d="m624.2-.1c-.4.6-1.2.7-1.8.3-.6-.4-.7-1.2-.3-1.8.4-.6 1.2-.7 1.8-.3.5.4.7 1.1.3 1.7z" fill="#010101"/></g><g clip-path="url(#b)"><circle cx="1.8" cy="-12.6" fill="#ffaf00" r="3.3"/><circle cx="43.8" cy="26.3" fill="#ffaf00" r="3.3"/><circle cx="57.8" cy="39.2" fill="#010101" r="3.3"/><g fill="#ffaf00"><circle cx="27.5" cy="-12.4" r="3.3"/><circle cx="41.6" cy=".6" r="3.3"/><circle cx="25.3" cy="-38" r="3.3"/></g><circle cx="39.3" cy="-25.1" fill="#010101" r="3.3"/><circle cx="53.3" cy="-12.1" fill="#ffaf00" r="3.3"/><circle cx="67.3" cy=".8" fill="#ffaf00" r="3.3"/><circle cx="81.4" cy="13.7" fill="#ffaf00" r="3.3"/><circle cx="37" cy="-50.8" fill="#010101" r="3.3"/><circle cx="65.1" cy="-24.9" fill="#ffaf00" r="3.3"/><circle cx="79.1" cy="-11.9" fill="#010101" r="3.3"/></g><g clip-path="url(#b)"><circle cx="467.4" cy="481.8" fill="#ffaf00" r="3.3"/><circle cx="481.7" cy="494.5" fill="#010101" r="3.3"/><circle cx="510.2" cy="519.8" fill="#ffaf00" r="3.3"/><circle cx="524.4" cy="532.5" fill="#010101" r="3.3"/><circle cx="493.2" cy="481.5" fill="#ffaf00" r="3.3"/><circle cx="507.4" cy="494.2" fill="#ffaf00" r="3.3"/><circle cx="521.7" cy="506.9" fill="#010101" r="3.3"/><circle cx="504.7" cy="468.6" fill="#010101" r="3.3"/><g fill="#ffaf00"><circle cx="518.9" cy="481.2" r="3.3"/><circle cx="533.2" cy="493.9" r="3.3"/><circle cx="547.5" cy="506.6" r="3.3"/></g><circle cx="501.9" cy="442.9" fill="#010101" r="3.3"/><circle cx="530.4" cy="468.3" fill="#ffaf00" r="3.3"/><circle cx="544.7" cy="481" fill="#010101" r="3.3"/></g><circle cx="563" cy="196" r="13" style="fill:none;stroke:#ffaf00;stroke-width:10;stroke-linecap:round;stroke-linejoin:round;stroke-miterlimit:10;clip-path:url(#b)"/><circle cx="184.2" cy="100" r="13" style="fill:none;stroke:#010101;stroke-width:8;stroke-linecap:round;stroke-linejoin:round;stroke-miterlimit:10;clip-path:url(#b)"/><g clip-path="url(#b)"><path d="m272.5 230.8c-9.4 0-17-7.6-17-17s7.6-17 17-17 17 7.6 17 17-7.6 17-17 17zm0-26c-5 0-9 4-9 9s4 9 9 9 9-4 9-9-4-9-9-9z" fill="#010101"/><path d="m254 212.3c-9.4 0-17-7.6-17-17s7.6-17 17-17 17 7.6 17 17-7.6 17-17 17zm0-26c-5 0-9 4-9 9s4 9 9 9 9-4 9-9-4-9-9-9z" fill="none" stroke="#ffaf00" stroke-miterlimit="10" stroke-width="2"/></g><g clip-path="url(#b)"><path d="m709.8 434.8c-9.4 0-17-7.6-17-17s7.6-17 17-17 17 7.6 17 17-7.6 17-17 17zm0-26c-5 0-9 4-9 9s4 9 9 9 9-4 9-9c0-4.9-4-9-9-9z" fill="#010101"/><path d="m691.3 416.3c-9.4 0-17-7.6-17-17s7.6-17 17-17 17 7.6 17 17-7.6 17-17 17zm0-26c-5 0-9 4-9 9s4 9 9 9 9-4 9-9c0-4.9-4-9-9-9z" fill="none" stroke="#ffaf00" stroke-miterlimit="10" stroke-width="2"/></g><g clip-path="url(#b)"><path d="m483.4 94.4c-9.4 0-17-7.6-17-17s7.6-17 17-17 17 7.6 17 17-7.6 17-17 17zm0-26c-5 0-9 4-9 9s4 9 9 9 9-4 9-9c0-4.9-4-9-9-9z" fill="#010101"/><path d="m464.9 75.9c-9.4 0-17-7.6-17-17s7.6-17 17-17 17 7.6 17 17-7.6 17-17 17zm0-26c-5 0-9 4-9 9s4 9 9 9 9-4 9-9-4-9-9-9z" fill="none" stroke="#ffaf00" stroke-miterlimit="10" stroke-width="2"/></g><circle cx="672.3" cy="122" r="8.2" style="fill:none;stroke:#010101;stroke-width:4;stroke-linecap:round;stroke-linejoin:round;stroke-miterlimit:10;clip-path:url(#b)"/><g clip-path="url(#b)"><circle cx="467" cy="304.7" r="4.7" style="fill:none;stroke:#010101;stroke-width:2.2857;stroke-linecap:round;stroke-linejoin:round;stroke-miterlimit:10"/><circle cx="470.1" cy="307.8" fill="#ffaf00" r="4.7"/></g><g clip-path="url(#b)"><circle cx="138.3" cy="268.7" r="4.7" style="fill:none;stroke:#010101;stroke-width:2.2857;stroke-linecap:round;stroke-linejoin:round;stroke-miterlimit:10"/><circle cx="141.4" cy="271.8" fill="#ffaf00" r="4.7"/></g><g clip-path="url(#b)"><circle cx="267.6" cy="38.6" r="4.7" style="fill:none;stroke:#010101;stroke-width:2.2857;stroke-linecap:round;stroke-linejoin:round;stroke-miterlimit:10"/><circle cx="270.7" cy="41.7" fill="#ffaf00" r="4.7"/></g><g clip-path="url(#b)"><path d="m362.4 38.7c5.4 5.4 5.4 14.1 0 19.5l-19.7-19.5c5.5-5.4 14.3-5.4 19.7 0z" fill="#ffaf00"/><path d="m326.8 47.8c-5.4-5.4-5.4-14.1 0-19.5l19.7 19.5c-5.4 5.4-14.3 5.4-19.7 0z" fill="none" stroke="#ffaf00" stroke-miterlimit="10" stroke-width="1.7707"/></g><g clip-path="url(#b)"><path d="m673.7 293.3c5.4 5.4 5.4 14.1 0 19.5l-19.7-19.5c5.5-5.3 14.3-5.3 19.7 0z" fill="#ffaf00"/><path d="m638.1 302.5c-5.4-5.4-5.4-14.1 0-19.5l19.7 19.5c-5.4 5.4-14.2 5.4-19.7 0z" fill="none" stroke="#ffaf00" stroke-miterlimit="10" stroke-width="1.7707"/></g></svg>